<?xml version="1.0" encoding="utf-8" standalone="no"?>
<!DOCTYPE svg PUBLIC "-//W3C//DTD SVG 1.1//EN"
  "http://www.w3.org/Graphics/SVG/1.1/DTD/svg11.dtd">
<!-- Created with matplotlib (http://matplotlib.org/) -->
<svg height="345pt" version="1.1" viewBox="0 0 460 345" width="460pt" xmlns="http://www.w3.org/2000/svg" xmlns:xlink="http://www.w3.org/1999/xlink">
 <defs>
  <style type="text/css">
*{stroke-linecap:butt;stroke-linejoin:round;}
  </style>
 </defs>
 <g id="figure_1">
  <g id="patch_1">
   <path d="M 0 345.6 
L 460.8 345.6 
L 460.8 0 
L 0 0 
z
" style="fill:#ffffff;"/>
  </g>
  <g id="axes_1">
   <g id="patch_2">
    <path d="M 57.6 307.584 
L 414.72 307.584 
L 414.72 41.472 
L 57.6 41.472 
z
" style="fill:#ffffff;"/>
   </g>
   <g id="PolyCollection_1">
    <path clip-path="url(#p3437ae543c)" d="M 73.832727 105.571754 
L 73.832727 107.2352 
L 74.92584 100.166932 
L 76.018953 101.708769 
L 77.112066 103.615737 
L 78.205179 103.505967 
L 79.298292 99.303285 
L 80.391405 94.37043 
L 81.484518 95.549607 
L 82.577631 112.01615 
L 83.670744 140.070077 
L 84.763857 166.376144 
L 85.85697 187.49905 
L 86.950083 203.062791 
L 88.043196 216.005479 
L 89.136309 229.079808 
L 90.229421 241.689168 
L 91.322534 250.451351 
L 92.415647 248.74667 
L 93.50876 230.43967 
L 94.601873 196.601243 
L 95.694986 161.648003 
L 96.788099 136.851256 
L 97.881212 118.15021 
L 98.974325 105.93888 
L 100.067438 99.774116 
L 101.160551 97.579202 
L 102.253664 95.28821 
L 103.346777 86.831552 
L 104.43989 73.10364 
L 105.533003 70.291956 
L 106.626116 87.148997 
L 107.719229 112.861176 
L 108.812342 140.843954 
L 109.905455 167.373566 
L 110.998567 190.031079 
L 112.09168 209.744776 
L 113.184793 230.218695 
L 114.277906 251.152344 
L 115.371019 267.846378 
L 116.464132 276.033726 
L 117.557245 269.986173 
L 118.650358 246.678804 
L 119.743471 210.130786 
L 120.836584 173.089925 
L 121.929697 147.149106 
L 123.02281 130.413592 
L 124.115923 123.130219 
L 125.209036 122.968099 
L 126.302149 125.773671 
L 127.395262 126.421302 
L 128.488375 117.95812 
L 129.581488 98.9019 
L 130.674601 85.275256 
L 131.767713 92.22266 
L 132.860826 108.483439 
L 133.953939 125.777258 
L 135.047052 140.492915 
L 136.140165 150.309945 
L 137.233278 158.27525 
L 138.326391 171.925211 
L 139.419504 194.853126 
L 140.512617 217.919629 
L 141.60573 233.327699 
L 142.698843 237.728554 
L 143.791956 230.517959 
L 144.885069 213.897082 
L 145.978182 192.863722 
L 147.071295 170.011581 
L 148.164408 144.359547 
L 149.257521 120.460877 
L 150.350634 105.173755 
L 151.443747 96.76036 
L 152.53686 90.566728 
L 153.629972 83.53739 
L 154.723085 73.656376 
L 155.816198 63.859834 
L 156.909311 60.648945 
L 158.002424 72.306509 
L 159.095537 99.087137 
L 160.18865 130.222825 
L 161.281763 160.105954 
L 162.374876 187.614883 
L 163.467989 213.140003 
L 164.561102 237.359467 
L 165.654215 259.061502 
L 166.747328 276.784799 
L 167.840441 287.937968 
L 168.933554 287.635359 
L 170.026667 268.377146 
L 171.11978 232.733068 
L 172.212893 191.636652 
L 173.306006 162.599671 
L 174.399118 145.527635 
L 175.492231 138.407763 
L 176.585344 138.927109 
L 177.678457 143.67232 
L 178.77157 147.777412 
L 179.864683 143.944393 
L 180.957796 126.837504 
L 182.050909 103.047226 
L 183.144022 95.910207 
L 184.237135 101.635292 
L 185.330248 108.953602 
L 186.423361 115.066897 
L 187.516474 116.37922 
L 188.609587 114.811815 
L 189.7027 117.160813 
L 190.795813 133.267416 
L 191.888926 160.229154 
L 192.982039 184.888649 
L 194.075152 202.616595 
L 195.168264 212.261917 
L 196.261377 216.463577 
L 197.35449 219.305831 
L 198.447603 222.473949 
L 199.540716 222.34156 
L 200.633829 212.16007 
L 201.726942 185.381085 
L 202.820055 151.731403 
L 203.913168 128.184689 
L 205.006281 110.399087 
L 206.099394 96.195753 
L 207.192507 85.496255 
L 208.28562 77.765852 
L 209.378733 71.457012 
L 210.471846 63.865496 
L 211.564959 56.46818 
L 212.658072 62.873624 
L 213.751185 86.548364 
L 214.844298 117.202356 
L 215.93741 149.961869 
L 217.030523 181.573763 
L 218.123636 210.198631 
L 219.216749 235.37759 
L 220.309862 257.601756 
L 221.402975 276.628005 
L 222.496088 290.156213 
L 223.589201 294.674438 
L 224.682314 283.113059 
L 225.775427 251.297743 
L 226.86854 208.435987 
L 227.961653 174.591238 
L 229.054766 155.190116 
L 230.147879 145.908829 
L 231.240992 145.092818 
L 232.334105 149.715368 
L 233.427218 155.429493 
L 234.520331 155.808193 
L 235.613444 143.742626 
L 236.706556 118.863965 
L 237.799669 101.287528 
L 238.892782 100.117011 
L 239.985895 103.06421 
L 241.079008 105.586496 
L 242.172121 104.588243 
L 243.265234 100.134885 
L 244.358347 97.142174 
L 245.45146 104.428021 
L 246.544573 127.619389 
L 247.637686 155.797619 
L 248.730799 179.564206 
L 249.823912 197.231192 
L 250.917025 209.891316 
L 252.010138 221.177256 
L 253.103251 232.697848 
L 254.196364 242.914813 
L 255.289477 246.699079 
L 256.38259 236.657107 
L 257.475702 208.93329 
L 258.568815 172.7779 
L 259.661928 144.290446 
L 260.755041 123.284864 
L 261.848154 108.014789 
L 262.941267 98.74326 
L 264.03438 94.257457 
L 265.127493 91.807148 
L 266.220606 86.244917 
L 267.313719 74.25724 
L 268.406832 66.135112 
L 269.499945 77.764041 
L 270.593058 102.289076 
L 271.686171 131.152065 
L 272.779284 159.855395 
L 273.872397 185.650424 
L 274.96551 207.645989 
L 276.058623 228.507283 
L 277.151736 249.604539 
L 278.244848 267.849552 
L 279.337961 279.220392 
L 280.431074 278.645487 
L 281.524187 260.383667 
L 282.6173 226.06943 
L 283.710413 186.297454 
L 284.803526 157.151392 
L 285.896639 138.323348 
L 286.989752 129.139531 
L 288.082865 127.984778 
L 289.175978 131.153524 
L 290.269091 133.938448 
L 291.362204 129.521105 
L 292.455317 112.718861 
L 293.54843 92.630491 
L 294.641543 90.696704 
L 295.734656 102.436453 
L 296.827769 116.465455 
L 297.920882 129.186048 
L 299.013994 137.095896 
L 300.107107 141.749428 
L 301.20022 149.722603 
L 302.293333 169.258675 
L 303.386446 194.735025 
L 304.479559 215.195119 
L 305.572672 226.450132 
L 306.665785 227.235995 
L 307.758898 219.431534 
L 308.852011 207.050473 
L 309.945124 193.108845 
L 311.038237 175.341445 
L 312.13135 149.762411 
L 313.224463 123.643723 
L 314.317576 107.602677 
L 315.410689 96.676592 
L 316.503802 87.313681 
L 317.596915 78.15681 
L 318.690028 68.638635 
L 319.78314 60.30668 
L 320.876253 56.405827 
L 321.969366 65.324809 
L 323.062479 90.84419 
L 324.155592 122.216074 
L 325.248705 153.684113 
L 326.341818 183.812653 
L 327.434931 212.092907 
L 328.528044 237.854785 
L 329.621157 260.282868 
L 330.71427 278.678046 
L 331.807383 291.243504 
L 332.900496 293.919481 
L 333.993609 279.234107 
L 335.086722 245.60742 
L 336.179835 203.142598 
L 337.272948 171.030919 
L 338.366061 152.895047 
L 339.459174 144.943595 
L 340.552287 145.049892 
L 341.645399 150.073333 
L 342.738512 155.494274 
L 343.831625 154.407588 
L 344.924738 140.2912 
L 346.017851 114.951308 
L 347.110964 100.12877 
L 348.204077 100.54769 
L 349.29719 103.782789 
L 350.390303 106.301722 
L 351.483416 104.905524 
L 352.576529 100.412653 
L 353.669642 98.399597 
L 354.762755 108.018337 
L 355.855868 132.858252 
L 356.948981 160.587697 
L 358.042094 183.348393 
L 359.135207 199.765548 
L 360.22832 211.58589 
L 361.321433 222.422347 
L 362.414545 233.495138 
L 363.507658 242.798837 
L 364.600771 244.577106 
L 365.693884 231.647932 
L 366.786997 201.370867 
L 367.88011 165.654218 
L 368.973223 139.275231 
L 370.066336 119.374551 
L 371.159449 105.084957 
L 372.252562 96.576248 
L 373.345675 92.468047 
L 374.438788 89.65989 
L 375.531901 82.845671 
L 376.625014 70.522891 
L 377.718127 66.045276 
L 378.81124 81.625708 
L 379.904353 107.825887 
L 380.997466 137.361384 
L 382.090579 166.099258 
L 383.183691 191.492723 
L 384.276804 213.497324 
L 385.369917 234.618625 
L 386.46303 255.443967 
L 387.556143 272.440955 
L 388.649256 281.717783 
L 389.742369 277.709591 
L 390.835482 255.446493 
L 391.928595 218.22685 
L 393.021708 179.395097 
L 394.114821 153.162559 
L 395.207934 136.710395 
L 396.301047 129.833669 
L 397.39416 130.217393 
L 398.487273 133.998711 
L 398.487273 133.013415 
L 398.487273 133.013415 
L 397.39416 128.970838 
L 396.301047 127.490816 
L 395.207934 133.529331 
L 394.114821 150.110905 
L 393.021708 177.360454 
L 391.928595 213.031503 
L 390.835482 252.375867 
L 389.742369 274.563677 
L 388.649256 276.333264 
L 387.556143 267.361032 
L 386.46303 251.874149 
L 385.369917 232.848607 
L 384.276804 212.213561 
L 383.183691 189.937477 
L 382.090579 164.139681 
L 380.997466 135.373391 
L 379.904353 105.745574 
L 378.81124 78.354887 
L 377.718127 64.329473 
L 376.625014 67.759565 
L 375.531901 80.317416 
L 374.438788 88.317526 
L 373.345675 91.588524 
L 372.252562 95.065069 
L 371.159449 102.883648 
L 370.066336 116.498135 
L 368.973223 136.791735 
L 367.88011 163.311358 
L 366.786997 195.654529 
L 365.693884 227.888677 
L 364.600771 243.167692 
L 363.507658 241.149176 
L 362.414545 232.025235 
L 361.321433 220.997788 
L 360.22832 209.980009 
L 359.135207 197.780586 
L 358.042094 181.503728 
L 356.948981 159.153095 
L 355.855868 130.818543 
L 354.762755 106.683929 
L 353.669642 97.216258 
L 352.576529 97.986983 
L 351.483416 102.045293 
L 350.390303 104.384702 
L 349.29719 102.949772 
L 348.204077 97.529416 
L 347.110964 97.987544 
L 346.017851 111.86504 
L 344.924738 134.922909 
L 343.831625 150.888942 
L 342.738512 153.723163 
L 341.645399 148.956512 
L 340.552287 143.53273 
L 339.459174 142.315334 
L 338.366061 149.399774 
L 337.272948 168.290275 
L 336.179835 199.123122 
L 335.086722 241.006168 
L 333.993609 276.464066 
L 332.900496 287.260298 
L 331.807383 283.783423 
L 330.71427 272.586983 
L 329.621157 256.282223 
L 328.528044 235.553024 
L 327.434931 210.565001 
L 326.341818 182.090329 
L 325.248705 151.359379 
L 324.155592 119.872486 
L 323.062479 88.219651 
L 321.969366 63.037144 
L 320.876253 53.886865 
L 319.78314 57.859743 
L 318.690028 66.544129 
L 317.596915 76.577664 
L 316.503802 86.365478 
L 315.410689 94.736519 
L 314.317576 104.971664 
L 313.224463 121.93949 
L 312.13135 146.955477 
L 311.038237 172.617634 
L 309.945124 190.471336 
L 308.852011 204.088645 
L 307.758898 216.35184 
L 306.665785 225.040809 
L 305.572672 225.015188 
L 304.479559 213.903822 
L 303.386446 193.052478 
L 302.293333 167.796705 
L 301.20022 148.408416 
L 300.107107 138.927738 
L 299.013994 133.878647 
L 297.920882 126.782957 
L 296.827769 115.418971 
L 295.734656 99.704814 
L 294.641543 87.650544 
L 293.54843 90.986763 
L 292.455317 108.304088 
L 291.362204 125.589836 
L 290.269091 132.100011 
L 289.175978 130.261319 
L 288.082865 126.483926 
L 286.989752 126.539185 
L 285.896639 135.007343 
L 284.803526 154.427882 
L 283.710413 183.592935 
L 282.6173 220.843036 
L 281.524187 257.981272 
L 280.431074 274.965599 
L 279.337961 273.931686 
L 278.244848 263.236863 
L 277.151736 246.562302 
L 276.058623 227.086887 
L 274.96551 206.363911 
L 273.872397 183.923808 
L 272.779284 157.903404 
L 271.686171 129.202275 
L 270.593058 99.880056 
L 269.499945 74.666058 
L 268.406832 64.401741 
L 267.313719 71.362285 
L 266.220606 83.922798 
L 265.127493 90.665336 
L 264.03438 93.312807 
L 262.941267 97.056614 
L 261.848154 105.631463 
L 260.755041 120.34477 
L 259.661928 141.963308 
L 258.568815 169.748892 
L 257.475702 203.202879 
L 256.38259 233.639826 
L 255.289477 245.299769 
L 254.196364 241.176162 
L 253.103251 231.255102 
L 252.010138 219.76813 
L 250.917025 208.246793 
L 249.823912 195.196101 
L 248.730799 177.789115 
L 247.637686 154.287458 
L 246.544573 125.54461 
L 245.45146 103.272673 
L 244.358347 95.774341 
L 243.265234 97.609261 
L 242.172121 101.817856 
L 241.079008 103.878204 
L 239.985895 101.943023 
L 238.892782 96.984895 
L 237.799669 99.420316 
L 236.706556 115.150188 
L 235.613444 138.348618 
L 234.520331 152.635176 
L 233.427218 153.840954 
L 232.334105 148.567432 
L 231.240992 143.464456 
L 230.147879 143.190917 
L 229.054766 151.709737 
L 227.961653 171.995487 
L 226.86854 203.863855 
L 225.775427 247.089408 
L 224.682314 279.649887 
L 223.589201 287.621208 
L 222.496088 282.733562 
L 221.402975 270.76979 
L 220.309862 253.94754 
L 219.216749 233.346415 
L 218.123636 208.617937 
L 217.030523 179.625841 
L 215.93741 147.568933 
L 214.844298 114.900997 
L 213.751185 83.657368 
L 212.658072 60.480755 
L 211.564959 53.568 
L 210.471846 61.229772 
L 209.378733 69.652753 
L 208.28562 76.535956 
L 207.192507 84.341455 
L 206.099394 94.421211 
L 205.006281 107.76687 
L 203.913168 125.686293 
L 202.820055 149.354857 
L 201.726942 179.826943 
L 200.633829 208.329597 
L 199.540716 220.478533 
L 198.447603 220.691934 
L 197.35449 217.602899 
L 196.261377 214.58668 
L 195.168264 210.225615 
L 194.075152 200.757371 
L 192.982039 183.579692 
L 191.888926 158.53803 
L 190.795813 131.838117 
L 189.7027 116.155421 
L 188.609587 112.229676 
L 187.516474 113.150546 
L 186.423361 112.649336 
L 185.330248 108.100517 
L 184.237135 98.98727 
L 183.144022 93.130972 
L 182.050909 101.265704 
L 180.957796 121.76102 
L 179.864683 139.899085 
L 178.77157 145.790887 
L 177.678457 142.656489 
L 176.585344 137.585484 
L 175.492231 135.925744 
L 174.399118 142.13419 
L 173.306006 159.741273 
L 172.212893 188.791363 
L 171.11978 227.596192 
L 170.026667 266.186058 
L 168.933554 282.516962 
L 167.840441 281.268086 
L 166.747328 271.037333 
L 165.654215 255.186925 
L 164.561102 235.161848 
L 163.467989 211.787422 
L 162.374876 185.970152 
L 161.281763 157.951642 
L 160.18865 128.010602 
L 159.095537 96.57795 
L 158.002424 69.881817 
L 156.909311 58.468094 
L 155.816198 61.526923 
L 154.723085 71.409039 
L 153.629972 81.842661 
L 152.53686 89.701139 
L 151.443747 94.770413 
L 150.350634 102.599416 
L 149.257521 118.64434 
L 148.164408 142.830021 
L 147.071295 167.92787 
L 145.978182 189.831723 
L 144.885069 210.163242 
L 143.791956 227.589521 
L 142.698843 236.290742 
L 141.60573 232.112953 
L 140.512617 216.283021 
L 139.419504 193.131569 
L 138.326391 170.618388 
L 137.233278 156.034217 
L 136.140165 147.231246 
L 135.047052 137.781593 
L 133.953939 124.270779 
L 132.860826 106.614666 
L 131.767713 88.575027 
L 130.674601 83.954774 
L 129.581488 95.609379 
L 128.488375 113.709431 
L 127.395262 123.988215 
L 126.302149 124.821517 
L 125.209036 121.734865 
L 124.115923 120.742963 
L 123.02281 127.23909 
L 121.929697 144.193891 
L 120.836584 171.228189 
L 119.743471 205.264579 
L 118.650358 242.987999 
L 117.557245 267.918111 
L 116.464132 271.68155 
L 115.371019 263.468568 
L 114.277906 247.911427 
L 113.184793 228.579285 
L 112.09168 208.456625 
L 110.998567 188.273643 
L 109.905455 165.308727 
L 108.812342 139.014721 
L 107.719229 111.065702 
L 106.626116 83.719937 
L 105.533003 68.439325 
L 104.43989 70.592112 
L 103.346777 83.930487 
L 102.253664 93.626616 
L 101.160551 96.768433 
L 100.067438 98.41972 
L 98.974325 103.799105 
L 97.881212 115.300638 
L 96.788099 134.078223 
L 95.694986 159.927886 
L 94.601873 191.48413 
L 93.50876 225.965808 
L 92.415647 247.338004 
L 91.322534 248.550612 
L 90.229421 239.805381 
L 89.136309 227.720208 
L 88.043196 214.656615 
L 86.950083 201.301704 
L 85.85697 185.484469 
L 84.763857 164.816596 
L 83.670744 138.355998 
L 82.577631 110.071599 
L 81.484518 94.713401 
L 80.391405 92.534706 
L 79.298292 96.626402 
L 78.205179 101.052243 
L 77.112066 102.569996 
L 76.018953 99.700651 
L 74.92584 97.169787 
L 73.832727 105.571754 
z
" style="fill:#008000;fill-opacity:0.4;"/>
   </g>
   <g id="matplotlib.axis_1">
    <g id="xtick_1">
     <g id="line2d_1">
      <defs>
       <path d="M 0 0 
L 0 3.5 
" id="m89491731fa" style="stroke:#000000;stroke-width:0.8;"/>
      </defs>
      <g>
       <use style="stroke:#000000;stroke-width:0.8;" x="73.832727" xlink:href="#m89491731fa" y="307.584"/>
      </g>
     </g>
     <g id="text_1">
      <!-- 0.0 -->
      <defs>
       <path d="M 31.78125 66.40625 
Q 24.171875 66.40625 20.328125 58.90625 
Q 16.5 51.421875 16.5 36.375 
Q 16.5 21.390625 20.328125 13.890625 
Q 24.171875 6.390625 31.78125 6.390625 
Q 39.453125 6.390625 43.28125 13.890625 
Q 47.125 21.390625 47.125 36.375 
Q 47.125 51.421875 43.28125 58.90625 
Q 39.453125 66.40625 31.78125 66.40625 
M 31.78125 74.21875 
Q 44.046875 74.21875 50.515625 64.515625 
Q 56.984375 54.828125 56.984375 36.375 
Q 56.984375 17.96875 50.515625 8.265625 
Q 44.046875 -1.421875 31.78125 -1.421875 
Q 19.53125 -1.421875 13.0625 8.265625 
Q 6.59375 17.96875 6.59375 36.375 
Q 6.59375 54.828125 13.0625 64.515625 
Q 19.53125 74.21875 31.78125 74.21875 
" id="DejaVuSans-30"/>
       <path d="M 10.6875 12.40625 
L 21 12.40625 
L 21 0 
L 10.6875 0 
z
" id="DejaVuSans-2e"/>
      </defs>
      <g transform="translate(65.881165 322.182437)scale(0.1 -0.1)">
       <use xlink:href="#DejaVuSans-30"/>
       <use x="63.623047" xlink:href="#DejaVuSans-2e"/>
       <use x="95.410156" xlink:href="#DejaVuSans-30"/>
      </g>
     </g>
    </g>
    <g id="xtick_2">
     <g id="line2d_2">
      <g>
       <use style="stroke:#000000;stroke-width:0.8;" x="138.763636" xlink:href="#m89491731fa" y="307.584"/>
      </g>
     </g>
     <g id="text_2">
      <!-- 0.2 -->
      <defs>
       <path d="M 19.1875 8.296875 
L 53.609375 8.296875 
L 53.609375 0 
L 7.328125 0 
L 7.328125 8.296875 
Q 12.9375 14.109375 22.625 23.890625 
Q 32.328125 33.6875 34.8125 36.53125 
Q 39.546875 41.84375 41.421875 45.53125 
Q 43.3125 49.21875 43.3125 52.78125 
Q 43.3125 58.59375 39.234375 62.25 
Q 35.15625 65.921875 28.609375 65.921875 
Q 23.96875 65.921875 18.8125 64.3125 
Q 13.671875 62.703125 7.8125 59.421875 
L 7.8125 69.390625 
Q 13.765625 71.78125 18.9375 73 
Q 24.125 74.21875 28.421875 74.21875 
Q 39.75 74.21875 46.484375 68.546875 
Q 53.21875 62.890625 53.21875 53.421875 
Q 53.21875 48.921875 51.53125 44.890625 
Q 49.859375 40.875 45.40625 35.40625 
Q 44.1875 33.984375 37.640625 27.21875 
Q 31.109375 20.453125 19.1875 8.296875 
" id="DejaVuSans-32"/>
      </defs>
      <g transform="translate(130.812074 322.182437)scale(0.1 -0.1)">
       <use xlink:href="#DejaVuSans-30"/>
       <use x="63.623047" xlink:href="#DejaVuSans-2e"/>
       <use x="95.410156" xlink:href="#DejaVuSans-32"/>
      </g>
     </g>
    </g>
    <g id="xtick_3">
     <g id="line2d_3">
      <g>
       <use style="stroke:#000000;stroke-width:0.8;" x="203.694545" xlink:href="#m89491731fa" y="307.584"/>
      </g>
     </g>
     <g id="text_3">
      <!-- 0.4 -->
      <defs>
       <path d="M 37.796875 64.3125 
L 12.890625 25.390625 
L 37.796875 25.390625 
z
M 35.203125 72.90625 
L 47.609375 72.90625 
L 47.609375 25.390625 
L 58.015625 25.390625 
L 58.015625 17.1875 
L 47.609375 17.1875 
L 47.609375 0 
L 37.796875 0 
L 37.796875 17.1875 
L 4.890625 17.1875 
L 4.890625 26.703125 
z
" id="DejaVuSans-34"/>
      </defs>
      <g transform="translate(195.742983 322.182437)scale(0.1 -0.1)">
       <use xlink:href="#DejaVuSans-30"/>
       <use x="63.623047" xlink:href="#DejaVuSans-2e"/>
       <use x="95.410156" xlink:href="#DejaVuSans-34"/>
      </g>
     </g>
    </g>
    <g id="xtick_4">
     <g id="line2d_4">
      <g>
       <use style="stroke:#000000;stroke-width:0.8;" x="268.625455" xlink:href="#m89491731fa" y="307.584"/>
      </g>
     </g>
     <g id="text_4">
      <!-- 0.6 -->
      <defs>
       <path d="M 33.015625 40.375 
Q 26.375 40.375 22.484375 35.828125 
Q 18.609375 31.296875 18.609375 23.390625 
Q 18.609375 15.53125 22.484375 10.953125 
Q 26.375 6.390625 33.015625 6.390625 
Q 39.65625 6.390625 43.53125 10.953125 
Q 47.40625 15.53125 47.40625 23.390625 
Q 47.40625 31.296875 43.53125 35.828125 
Q 39.65625 40.375 33.015625 40.375 
M 52.59375 71.296875 
L 52.59375 62.3125 
Q 48.875 64.0625 45.09375 64.984375 
Q 41.3125 65.921875 37.59375 65.921875 
Q 27.828125 65.921875 22.671875 59.328125 
Q 17.53125 52.734375 16.796875 39.40625 
Q 19.671875 43.65625 24.015625 45.921875 
Q 28.375 48.1875 33.59375 48.1875 
Q 44.578125 48.1875 50.953125 41.515625 
Q 57.328125 34.859375 57.328125 23.390625 
Q 57.328125 12.15625 50.6875 5.359375 
Q 44.046875 -1.421875 33.015625 -1.421875 
Q 20.359375 -1.421875 13.671875 8.265625 
Q 6.984375 17.96875 6.984375 36.375 
Q 6.984375 53.65625 15.1875 63.9375 
Q 23.390625 74.21875 37.203125 74.21875 
Q 40.921875 74.21875 44.703125 73.484375 
Q 48.484375 72.75 52.59375 71.296875 
" id="DejaVuSans-36"/>
      </defs>
      <g transform="translate(260.673892 322.182437)scale(0.1 -0.1)">
       <use xlink:href="#DejaVuSans-30"/>
       <use x="63.623047" xlink:href="#DejaVuSans-2e"/>
       <use x="95.410156" xlink:href="#DejaVuSans-36"/>
      </g>
     </g>
    </g>
    <g id="xtick_5">
     <g id="line2d_5">
      <g>
       <use style="stroke:#000000;stroke-width:0.8;" x="333.556364" xlink:href="#m89491731fa" y="307.584"/>
      </g>
     </g>
     <g id="text_5">
      <!-- 0.8 -->
      <defs>
       <path d="M 31.78125 34.625 
Q 24.75 34.625 20.71875 30.859375 
Q 16.703125 27.09375 16.703125 20.515625 
Q 16.703125 13.921875 20.71875 10.15625 
Q 24.75 6.390625 31.78125 6.390625 
Q 38.8125 6.390625 42.859375 10.171875 
Q 46.921875 13.96875 46.921875 20.515625 
Q 46.921875 27.09375 42.890625 30.859375 
Q 38.875 34.625 31.78125 34.625 
M 21.921875 38.8125 
Q 15.578125 40.375 12.03125 44.71875 
Q 8.5 49.078125 8.5 55.328125 
Q 8.5 64.0625 14.71875 69.140625 
Q 20.953125 74.21875 31.78125 74.21875 
Q 42.671875 74.21875 48.875 69.140625 
Q 55.078125 64.0625 55.078125 55.328125 
Q 55.078125 49.078125 51.53125 44.71875 
Q 48 40.375 41.703125 38.8125 
Q 48.828125 37.15625 52.796875 32.3125 
Q 56.78125 27.484375 56.78125 20.515625 
Q 56.78125 9.90625 50.3125 4.234375 
Q 43.84375 -1.421875 31.78125 -1.421875 
Q 19.734375 -1.421875 13.25 4.234375 
Q 6.78125 9.90625 6.78125 20.515625 
Q 6.78125 27.484375 10.78125 32.3125 
Q 14.796875 37.15625 21.921875 38.8125 
M 18.3125 54.390625 
Q 18.3125 48.734375 21.84375 45.5625 
Q 25.390625 42.390625 31.78125 42.390625 
Q 38.140625 42.390625 41.71875 45.5625 
Q 45.3125 48.734375 45.3125 54.390625 
Q 45.3125 60.0625 41.71875 63.234375 
Q 38.140625 66.40625 31.78125 66.40625 
Q 25.390625 66.40625 21.84375 63.234375 
Q 18.3125 60.0625 18.3125 54.390625 
" id="DejaVuSans-38"/>
      </defs>
      <g transform="translate(325.604801 322.182437)scale(0.1 -0.1)">
       <use xlink:href="#DejaVuSans-30"/>
       <use x="63.623047" xlink:href="#DejaVuSans-2e"/>
       <use x="95.410156" xlink:href="#DejaVuSans-38"/>
      </g>
     </g>
    </g>
    <g id="xtick_6">
     <g id="line2d_6">
      <g>
       <use style="stroke:#000000;stroke-width:0.8;" x="398.487273" xlink:href="#m89491731fa" y="307.584"/>
      </g>
     </g>
     <g id="text_6">
      <!-- 1.0 -->
      <defs>
       <path d="M 12.40625 8.296875 
L 28.515625 8.296875 
L 28.515625 63.921875 
L 10.984375 60.40625 
L 10.984375 69.390625 
L 28.421875 72.90625 
L 38.28125 72.90625 
L 38.28125 8.296875 
L 54.390625 8.296875 
L 54.390625 0 
L 12.40625 0 
z
" id="DejaVuSans-31"/>
      </defs>
      <g transform="translate(390.53571 322.182437)scale(0.1 -0.1)">
       <use xlink:href="#DejaVuSans-31"/>
       <use x="63.623047" xlink:href="#DejaVuSans-2e"/>
       <use x="95.410156" xlink:href="#DejaVuSans-30"/>
      </g>
     </g>
    </g>
   </g>
   <g id="matplotlib.axis_2">
    <g id="ytick_1">
     <g id="line2d_7">
      <defs>
       <path d="M 0 0 
L -3.5 0 
" id="mfc22871955" style="stroke:#000000;stroke-width:0.8;"/>
      </defs>
      <g>
       <use style="stroke:#000000;stroke-width:0.8;" x="57.6" xlink:href="#mfc22871955" y="286.940559"/>
      </g>
     </g>
     <g id="text_7">
      <!-- 0.20 -->
      <g transform="translate(28.334375 290.739778)scale(0.1 -0.1)">
       <use xlink:href="#DejaVuSans-30"/>
       <use x="63.623047" xlink:href="#DejaVuSans-2e"/>
       <use x="95.410156" xlink:href="#DejaVuSans-32"/>
       <use x="159.033203" xlink:href="#DejaVuSans-30"/>
      </g>
     </g>
    </g>
    <g id="ytick_2">
     <g id="line2d_8">
      <g>
       <use style="stroke:#000000;stroke-width:0.8;" x="57.6" xlink:href="#mfc22871955" y="255.066151"/>
      </g>
     </g>
     <g id="text_8">
      <!-- 0.25 -->
      <defs>
       <path d="M 10.796875 72.90625 
L 49.515625 72.90625 
L 49.515625 64.59375 
L 19.828125 64.59375 
L 19.828125 46.734375 
Q 21.96875 47.46875 24.109375 47.828125 
Q 26.265625 48.1875 28.421875 48.1875 
Q 40.625 48.1875 47.75 41.5 
Q 54.890625 34.8125 54.890625 23.390625 
Q 54.890625 11.625 47.5625 5.09375 
Q 40.234375 -1.421875 26.90625 -1.421875 
Q 22.3125 -1.421875 17.546875 -0.640625 
Q 12.796875 0.140625 7.71875 1.703125 
L 7.71875 11.625 
Q 12.109375 9.234375 16.796875 8.0625 
Q 21.484375 6.890625 26.703125 6.890625 
Q 35.15625 6.890625 40.078125 11.328125 
Q 45.015625 15.765625 45.015625 23.390625 
Q 45.015625 31 40.078125 35.4375 
Q 35.15625 39.890625 26.703125 39.890625 
Q 22.75 39.890625 18.8125 39.015625 
Q 14.890625 38.140625 10.796875 36.28125 
z
" id="DejaVuSans-35"/>
      </defs>
      <g transform="translate(28.334375 258.86537)scale(0.1 -0.1)">
       <use xlink:href="#DejaVuSans-30"/>
       <use x="63.623047" xlink:href="#DejaVuSans-2e"/>
       <use x="95.410156" xlink:href="#DejaVuSans-32"/>
       <use x="159.033203" xlink:href="#DejaVuSans-35"/>
      </g>
     </g>
    </g>
    <g id="ytick_3">
     <g id="line2d_9">
      <g>
       <use style="stroke:#000000;stroke-width:0.8;" x="57.6" xlink:href="#mfc22871955" y="223.191744"/>
      </g>
     </g>
     <g id="text_9">
      <!-- 0.30 -->
      <defs>
       <path d="M 40.578125 39.3125 
Q 47.65625 37.796875 51.625 33 
Q 55.609375 28.21875 55.609375 21.1875 
Q 55.609375 10.40625 48.1875 4.484375 
Q 40.765625 -1.421875 27.09375 -1.421875 
Q 22.515625 -1.421875 17.65625 -0.515625 
Q 12.796875 0.390625 7.625 2.203125 
L 7.625 11.71875 
Q 11.71875 9.328125 16.59375 8.109375 
Q 21.484375 6.890625 26.8125 6.890625 
Q 36.078125 6.890625 40.9375 10.546875 
Q 45.796875 14.203125 45.796875 21.1875 
Q 45.796875 27.640625 41.28125 31.265625 
Q 36.765625 34.90625 28.71875 34.90625 
L 20.21875 34.90625 
L 20.21875 43.015625 
L 29.109375 43.015625 
Q 36.375 43.015625 40.234375 45.921875 
Q 44.09375 48.828125 44.09375 54.296875 
Q 44.09375 59.90625 40.109375 62.90625 
Q 36.140625 65.921875 28.71875 65.921875 
Q 24.65625 65.921875 20.015625 65.03125 
Q 15.375 64.15625 9.8125 62.3125 
L 9.8125 71.09375 
Q 15.4375 72.65625 20.34375 73.4375 
Q 25.25 74.21875 29.59375 74.21875 
Q 40.828125 74.21875 47.359375 69.109375 
Q 53.90625 64.015625 53.90625 55.328125 
Q 53.90625 49.265625 50.4375 45.09375 
Q 46.96875 40.921875 40.578125 39.3125 
" id="DejaVuSans-33"/>
      </defs>
      <g transform="translate(28.334375 226.990963)scale(0.1 -0.1)">
       <use xlink:href="#DejaVuSans-30"/>
       <use x="63.623047" xlink:href="#DejaVuSans-2e"/>
       <use x="95.410156" xlink:href="#DejaVuSans-33"/>
       <use x="159.033203" xlink:href="#DejaVuSans-30"/>
      </g>
     </g>
    </g>
    <g id="ytick_4">
     <g id="line2d_10">
      <g>
       <use style="stroke:#000000;stroke-width:0.8;" x="57.6" xlink:href="#mfc22871955" y="191.317336"/>
      </g>
     </g>
     <g id="text_10">
      <!-- 0.35 -->
      <g transform="translate(28.334375 195.116555)scale(0.1 -0.1)">
       <use xlink:href="#DejaVuSans-30"/>
       <use x="63.623047" xlink:href="#DejaVuSans-2e"/>
       <use x="95.410156" xlink:href="#DejaVuSans-33"/>
       <use x="159.033203" xlink:href="#DejaVuSans-35"/>
      </g>
     </g>
    </g>
    <g id="ytick_5">
     <g id="line2d_11">
      <g>
       <use style="stroke:#000000;stroke-width:0.8;" x="57.6" xlink:href="#mfc22871955" y="159.442929"/>
      </g>
     </g>
     <g id="text_11">
      <!-- 0.40 -->
      <g transform="translate(28.334375 163.242148)scale(0.1 -0.1)">
       <use xlink:href="#DejaVuSans-30"/>
       <use x="63.623047" xlink:href="#DejaVuSans-2e"/>
       <use x="95.410156" xlink:href="#DejaVuSans-34"/>
       <use x="159.033203" xlink:href="#DejaVuSans-30"/>
      </g>
     </g>
    </g>
    <g id="ytick_6">
     <g id="line2d_12">
      <g>
       <use style="stroke:#000000;stroke-width:0.8;" x="57.6" xlink:href="#mfc22871955" y="127.568521"/>
      </g>
     </g>
     <g id="text_12">
      <!-- 0.45 -->
      <g transform="translate(28.334375 131.36774)scale(0.1 -0.1)">
       <use xlink:href="#DejaVuSans-30"/>
       <use x="63.623047" xlink:href="#DejaVuSans-2e"/>
       <use x="95.410156" xlink:href="#DejaVuSans-34"/>
       <use x="159.033203" xlink:href="#DejaVuSans-35"/>
      </g>
     </g>
    </g>
    <g id="ytick_7">
     <g id="line2d_13">
      <g>
       <use style="stroke:#000000;stroke-width:0.8;" x="57.6" xlink:href="#mfc22871955" y="95.694114"/>
      </g>
     </g>
     <g id="text_13">
      <!-- 0.50 -->
      <g transform="translate(28.334375 99.493332)scale(0.1 -0.1)">
       <use xlink:href="#DejaVuSans-30"/>
       <use x="63.623047" xlink:href="#DejaVuSans-2e"/>
       <use x="95.410156" xlink:href="#DejaVuSans-35"/>
       <use x="159.033203" xlink:href="#DejaVuSans-30"/>
      </g>
     </g>
    </g>
    <g id="ytick_8">
     <g id="line2d_14">
      <g>
       <use style="stroke:#000000;stroke-width:0.8;" x="57.6" xlink:href="#mfc22871955" y="63.819706"/>
      </g>
     </g>
     <g id="text_14">
      <!-- 0.55 -->
      <g transform="translate(28.334375 67.618925)scale(0.1 -0.1)">
       <use xlink:href="#DejaVuSans-30"/>
       <use x="63.623047" xlink:href="#DejaVuSans-2e"/>
       <use x="95.410156" xlink:href="#DejaVuSans-35"/>
       <use x="159.033203" xlink:href="#DejaVuSans-35"/>
      </g>
     </g>
    </g>
   </g>
   <g id="line2d_15">
    <path clip-path="url(#p3437ae543c)" d="M 73.832727 108.734571 
L 74.92584 100.199242 
L 76.018953 100.320365 
L 77.112066 102.244942 
L 78.205179 101.544342 
L 80.391405 94.150117 
L 81.484518 97.306959 
L 82.577631 113.645143 
L 84.763857 164.828429 
L 85.85697 185.668554 
L 86.950083 201.830153 
L 89.136309 228.797177 
L 90.229421 241.152335 
L 91.322534 249.148986 
L 92.415647 245.535066 
L 93.50876 224.656054 
L 95.694986 161.231083 
L 96.788099 135.574097 
L 97.881212 116.919919 
L 98.974325 105.084314 
L 100.067438 99.12635 
L 101.160551 96.622934 
L 102.253664 92.931878 
L 103.346777 83.560802 
L 104.43989 71.986567 
L 105.533003 71.082609 
L 106.626116 86.537871 
L 108.812342 140.094526 
L 109.905455 166.193291 
L 112.09168 209.451324 
L 114.277906 250.885504 
L 115.371019 267.660367 
L 116.464132 275.465135 
L 117.557245 268.011623 
L 118.650358 242.505722 
L 120.836584 172.547773 
L 121.929697 146.118151 
L 123.02281 129.624421 
L 124.115923 122.682175 
L 125.209036 122.629901 
L 126.302149 124.979044 
L 127.395262 123.776742 
L 128.488375 113.937112 
L 129.581488 97.500118 
L 130.674601 87.125635 
L 131.767713 92.087843 
L 132.860826 107.45832 
L 133.953939 124.725324 
L 135.047052 138.807437 
L 137.233278 158.450997 
L 138.326391 173.243272 
L 140.512617 215.99259 
L 141.60573 231.109347 
L 142.698843 235.172696 
L 143.791956 227.206644 
L 144.885069 210.700801 
L 145.978182 190.234244 
L 149.257521 120.167921 
L 150.350634 104.474876 
L 151.443747 95.368995 
L 152.53686 88.873628 
L 153.629972 81.084798 
L 155.816198 61.408089 
L 156.909311 59.285253 
L 158.002424 71.97828 
L 159.095537 98.092982 
L 161.281763 159.187296 
L 163.467989 212.591591 
L 165.654215 259.154363 
L 166.747328 277.594345 
L 167.840441 288.928247 
L 168.933554 287.067419 
L 170.026667 265.722403 
L 172.212893 190.937393 
L 173.306006 161.891521 
L 174.399118 144.615592 
L 175.492231 137.851205 
L 176.585344 138.689502 
L 177.678457 143.123232 
L 178.77157 145.560349 
L 179.864683 139.551386 
L 180.957796 122.913583 
L 182.050909 104.328891 
L 183.144022 96.714095 
L 184.237135 100.408339 
L 185.330248 107.882887 
L 186.423361 113.2397 
L 187.516474 114.58225 
L 188.609587 114.436265 
L 189.7027 119.197664 
L 190.795813 135.15463 
L 192.982039 182.998116 
L 194.075152 200.26512 
L 195.168264 210.276871 
L 196.261377 215.350002 
L 197.35449 218.706377 
L 198.447603 221.306054 
L 199.540716 219.591848 
L 200.633829 206.278546 
L 201.726942 180.145994 
L 202.820055 151.250569 
L 203.913168 127.198141 
L 205.006281 108.809157 
L 206.099394 94.759556 
L 207.192507 84.031905 
L 208.28562 75.821696 
L 209.378733 68.474645 
L 210.471846 59.919554 
L 211.564959 54.201285 
L 212.658072 62.210686 
L 213.751185 85.297319 
L 218.123636 209.11728 
L 220.309862 257.781213 
L 221.402975 277.627494 
L 222.496088 291.779731 
L 223.589201 295.488 
L 224.682314 281.363175 
L 225.775427 247.373582 
L 226.86854 206.85356 
L 227.961653 174.298953 
L 229.054766 154.110978 
L 230.147879 145.181044 
L 231.240992 144.771139 
L 233.427218 153.840045 
L 234.520331 151.943518 
L 235.613444 138.50463 
L 236.706556 117.672793 
L 237.799669 102.721783 
L 238.892782 99.234085 
L 239.985895 101.764913 
L 241.079008 103.906874 
L 242.172121 102.658034 
L 243.265234 99.054951 
L 244.358347 97.874961 
L 245.45146 106.650623 
L 246.544573 128.182422 
L 247.637686 154.476259 
L 248.730799 177.714614 
L 249.823912 195.449534 
L 250.917025 208.946434 
L 253.103251 232.314199 
L 254.196364 241.969595 
L 255.289477 244.309176 
L 256.38259 231.47399 
L 257.475702 203.476785 
L 258.568815 171.270884 
L 259.661928 143.319578 
L 260.755041 121.896789 
L 261.848154 106.940042 
L 262.941267 97.899823 
L 264.03438 93.378119 
L 265.127493 90.067006 
L 266.220606 83.067386 
L 267.313719 71.780021 
L 268.406832 66.58003 
L 269.499945 77.484265 
L 270.593058 101.39262 
L 272.779284 158.936763 
L 273.872397 184.487926 
L 276.058623 228.452934 
L 277.151736 249.576741 
L 278.244848 267.979111 
L 279.337961 279.307913 
L 280.431074 277.517209 
L 281.524187 257.041727 
L 283.710413 185.379134 
L 284.803526 156.228714 
L 285.896639 137.385201 
L 286.989752 128.629302 
L 288.082865 127.703031 
L 289.175978 130.660976 
L 290.269091 131.945515 
L 291.362204 125.433573 
L 293.54843 94.018157 
L 294.641543 91.450993 
L 295.734656 101.367758 
L 296.827769 115.500233 
L 297.920882 127.576171 
L 299.013994 135.416638 
L 300.107107 141.340815 
L 301.20022 151.424603 
L 302.293333 170.086431 
L 303.386446 193.232988 
L 304.479559 212.971534 
L 305.572672 223.988604 
L 306.665785 224.531106 
L 307.758898 216.790725 
L 308.852011 204.830173 
L 309.945124 190.518564 
L 311.038237 171.657202 
L 313.224463 123.735305 
L 314.317576 106.642335 
L 315.410689 95.040688 
L 319.78314 57.016433 
L 320.876253 54.024701 
L 321.969366 64.708365 
L 323.062479 89.73105 
L 326.341818 183.081627 
L 328.528044 237.211383 
L 329.621157 260.38089 
L 330.71427 279.753517 
L 331.807383 292.826487 
L 332.900496 294.373671 
L 333.993609 277.243089 
L 335.086722 241.763686 
L 336.179835 201.860753 
L 337.272948 170.623196 
L 338.366061 151.881044 
L 339.459174 144.251586 
L 340.552287 144.746277 
L 341.645399 149.5778 
L 342.738512 153.601625 
L 343.831625 150.239512 
L 344.924738 135.347789 
L 346.017851 114.607112 
L 347.110964 101.384333 
L 348.204077 99.446369 
L 349.29719 102.539461 
L 350.390303 104.549462 
L 351.483416 103.013753 
L 352.576529 99.559204 
L 353.669642 99.476968 
L 354.762755 110.237131 
L 355.855868 133.043269 
L 356.948981 159.135022 
L 358.042094 181.403758 
L 359.135207 198.054311 
L 360.22832 210.7314 
L 362.414545 233.042848 
L 363.507658 241.642563 
L 364.600771 241.753486 
L 365.693884 225.915093 
L 368.973223 138.143812 
L 370.066336 117.97305 
L 371.159449 104.045208 
L 372.252562 95.727263 
L 374.438788 87.575065 
L 375.531901 79.488527 
L 376.625014 68.551781 
L 377.718127 66.569193 
L 378.81124 81.07396 
L 379.904353 106.967454 
L 382.090579 165.091074 
L 383.183691 190.433778 
L 385.369917 234.605332 
L 386.46303 255.462669 
L 387.556143 272.717561 
L 388.649256 281.796667 
L 389.742369 276.277932 
L 390.835482 251.623715 
L 393.021708 179.042502 
L 394.114821 152.152614 
L 395.207934 135.890929 
L 396.301047 129.398112 
L 397.39416 129.963564 
L 398.487273 133.310377 
L 398.487273 133.310377 
" style="fill:none;stroke:#1f77b4;stroke-linecap:square;stroke-width:1.5;"/>
   </g>
   <g id="line2d_16">
    <path clip-path="url(#p3437ae543c)" d="M 73.832727 106.660441 
L 74.92584 99.539318 
L 76.018953 101.136467 
L 77.112066 102.98521 
L 78.205179 101.813318 
L 80.391405 93.194406 
L 81.484518 95.125365 
L 82.577631 111.361925 
L 84.763857 165.415823 
L 85.85697 185.978129 
L 86.950083 201.689873 
L 90.229421 240.729806 
L 91.322534 249.600502 
L 92.415647 247.837928 
L 93.50876 227.026199 
L 95.694986 161.081472 
L 96.788099 136.190008 
L 97.881212 117.53055 
L 98.974325 105.441635 
L 100.067438 99.392557 
L 101.160551 97.182645 
L 102.253664 94.177363 
L 103.346777 84.825867 
L 104.43989 71.492374 
L 105.533003 69.415786 
L 106.626116 86.111628 
L 110.998567 188.749443 
L 114.277906 250.109392 
L 115.371019 266.76487 
L 116.464132 274.944798 
L 117.557245 269.195249 
L 118.650358 244.118981 
L 120.836584 172.376811 
L 121.929697 146.450068 
L 123.02281 129.719546 
L 124.115923 122.539026 
L 125.209036 122.501031 
L 126.302149 125.224028 
L 127.395262 124.6669 
L 128.488375 114.809355 
L 129.581488 96.791567 
L 130.674601 84.813906 
L 131.767713 91.264383 
L 133.953939 124.85676 
L 135.047052 138.535425 
L 137.233278 156.590542 
L 138.326391 171.081208 
L 140.512617 216.919852 
L 141.60573 232.52273 
L 142.698843 236.721473 
L 143.791956 228.291909 
L 144.885069 211.054614 
L 147.071295 168.599987 
L 149.257521 119.934082 
L 150.350634 104.611407 
L 151.443747 96.266166 
L 152.53686 90.148978 
L 153.629972 82.450557 
L 155.816198 62.44862 
L 156.909311 59.382313 
L 158.002424 71.155655 
L 159.095537 98.060221 
L 161.281763 158.98505 
L 163.467989 212.313988 
L 164.561102 236.440244 
L 165.654215 258.038778 
L 166.747328 275.490432 
L 167.840441 286.452621 
L 168.933554 286.260741 
L 170.026667 267.224302 
L 172.212893 190.025889 
L 173.306006 161.816181 
L 174.399118 144.745651 
L 175.492231 137.689599 
L 176.585344 138.354959 
L 177.678457 143.078753 
L 178.77157 146.335417 
L 179.864683 140.858038 
L 180.957796 123.150875 
L 182.050909 102.345528 
L 183.144022 95.296057 
L 184.237135 100.889068 
L 185.330248 108.465987 
L 186.423361 113.358862 
L 187.516474 114.062379 
L 188.609587 112.991366 
L 189.7027 116.606198 
L 190.795813 132.671341 
L 192.982039 184.011644 
L 194.075152 201.203669 
L 195.168264 210.683519 
L 196.261377 215.072049 
L 198.447603 221.31371 
L 199.540716 221.10039 
L 200.633829 209.131568 
L 202.820055 150.532131 
L 203.913168 127.594277 
L 205.006281 109.792613 
L 206.099394 95.750299 
L 207.192507 85.029853 
L 208.28562 77.090404 
L 209.378733 70.374626 
L 211.564959 54.634351 
L 212.658072 61.536036 
L 213.751185 85.434704 
L 218.123636 209.289881 
L 219.216749 234.508897 
L 220.309862 256.606249 
L 221.402975 275.315223 
L 222.496088 288.540193 
L 223.589201 292.950647 
L 224.682314 281.925337 
L 225.775427 248.443718 
L 226.86854 205.431924 
L 227.961653 173.763462 
L 229.054766 154.323186 
L 230.147879 145.099426 
L 231.240992 144.411396 
L 232.334105 149.055486 
L 233.427218 154.317322 
L 234.520331 153.357653 
L 235.613444 139.573613 
L 236.706556 116.484041 
L 237.799669 100.835957 
L 238.892782 99.37973 
L 239.985895 102.603538 
L 241.079008 104.423602 
L 242.172121 102.650637 
L 243.265234 98.417759 
L 244.358347 96.304165 
L 245.45146 103.941234 
L 246.544573 126.862675 
L 247.637686 154.991362 
L 248.730799 178.308611 
L 249.823912 195.681392 
L 250.917025 208.660045 
L 253.103251 231.741512 
L 254.196364 241.95724 
L 255.289477 245.826804 
L 256.38259 234.408292 
L 257.475702 204.400674 
L 258.568815 170.756905 
L 259.661928 143.695399 
L 260.755041 122.645738 
L 261.848154 107.499719 
L 262.941267 98.289017 
L 264.03438 93.873365 
L 265.127493 91.130699 
L 266.220606 84.660676 
L 267.313719 72.302405 
L 268.406832 65.163972 
L 269.499945 76.660865 
L 270.593058 101.369243 
L 272.779284 158.787191 
L 273.872397 184.479985 
L 276.058623 227.690712 
L 277.151736 248.603432 
L 278.244848 266.740078 
L 279.337961 277.983669 
L 280.431074 277.650304 
L 281.524187 258.876813 
L 283.710413 184.760626 
L 284.803526 156.409705 
L 285.896639 137.584094 
L 286.989752 128.493018 
L 288.082865 127.454199 
L 289.175978 130.665916 
L 290.269091 132.639356 
L 291.362204 126.547092 
L 293.54843 91.915105 
L 294.641543 89.972917 
L 295.734656 101.643069 
L 296.827769 115.832797 
L 297.920882 127.483864 
L 299.013994 134.736981 
L 300.107107 139.670383 
L 301.20022 148.855235 
L 302.293333 168.374997 
L 303.386446 193.699432 
L 304.479559 214.324228 
L 305.572672 225.428669 
L 306.665785 225.554593 
L 307.758898 217.062639 
L 308.852011 204.862531 
L 309.945124 191.247263 
L 311.038237 173.308491 
L 313.224463 123.147933 
L 314.317576 106.99702 
L 315.410689 96.169662 
L 317.596915 77.221628 
L 318.690028 67.358133 
L 319.78314 58.831376 
L 320.876253 54.895227 
L 321.969366 64.042353 
L 323.062479 89.777325 
L 326.341818 182.847177 
L 328.528044 236.941853 
L 329.621157 259.229756 
L 330.71427 277.327108 
L 331.807383 289.587026 
L 332.900496 292.253766 
L 333.993609 278.116551 
L 335.086722 242.430552 
L 336.179835 200.573363 
L 337.272948 170.208691 
L 338.366061 152.040623 
L 339.459174 144.139822 
L 340.552287 144.38917 
L 342.738512 154.225608 
L 343.831625 151.67673 
L 344.924738 136.176956 
L 346.017851 113.140933 
L 347.110964 99.660703 
L 348.204077 99.801259 
L 349.29719 103.363192 
L 350.390303 104.983227 
L 351.483416 102.897927 
L 352.576529 98.774785 
L 353.669642 97.695747 
L 354.762755 107.502005 
L 355.855868 132.074943 
L 356.948981 159.755095 
L 358.042094 181.991911 
L 359.135207 198.235574 
L 361.321433 221.402596 
L 362.414545 232.533387 
L 363.507658 241.837876 
L 364.600771 243.650421 
L 365.693884 228.783391 
L 367.88011 164.369034 
L 368.973223 138.659415 
L 370.066336 118.727814 
L 371.159449 104.595265 
L 372.252562 96.148056 
L 373.345675 92.047531 
L 374.438788 88.819863 
L 375.531901 81.100544 
L 376.625014 68.694157 
L 377.718127 65.099032 
L 378.81124 80.557029 
L 379.904353 106.925602 
L 382.090579 164.986947 
L 383.183691 190.445058 
L 385.369917 233.782559 
L 386.46303 254.388161 
L 387.556143 271.255823 
L 388.649256 280.452159 
L 389.742369 276.788546 
L 390.835482 253.399882 
L 393.021708 178.513231 
L 394.114821 152.404129 
L 395.207934 136.009871 
L 396.301047 129.200128 
L 397.39416 129.711201 
L 398.487273 133.42231 
L 398.487273 133.42231 
" style="fill:none;stroke:#ff7f0e;stroke-linecap:square;stroke-width:1.5;"/>
   </g>
   <g id="line2d_17">
    <path clip-path="url(#p3437ae543c)" d="M 73.832727 107.2352 
L 74.92584 100.166932 
L 76.018953 101.708769 
L 77.112066 103.615737 
L 78.205179 103.505967 
L 79.298292 99.303285 
L 80.391405 94.37043 
L 81.484518 95.549607 
L 82.577631 112.01615 
L 84.763857 166.376144 
L 85.85697 187.49905 
L 86.950083 203.062791 
L 90.229421 241.689168 
L 91.322534 250.451351 
L 92.415647 248.74667 
L 93.50876 230.43967 
L 95.694986 161.648003 
L 96.788099 136.851256 
L 97.881212 118.15021 
L 98.974325 105.93888 
L 100.067438 99.774116 
L 102.253664 95.28821 
L 103.346777 86.831552 
L 104.43989 73.10364 
L 105.533003 70.291956 
L 106.626116 87.148997 
L 108.812342 140.843954 
L 109.905455 167.373566 
L 110.998567 190.031079 
L 115.371019 267.846378 
L 116.464132 276.033726 
L 117.557245 269.986173 
L 118.650358 246.678804 
L 120.836584 173.089925 
L 121.929697 147.149106 
L 123.02281 130.413592 
L 124.115923 123.130219 
L 125.209036 122.968099 
L 126.302149 125.773671 
L 127.395262 126.421302 
L 128.488375 117.95812 
L 129.581488 98.9019 
L 130.674601 85.275256 
L 131.767713 92.22266 
L 135.047052 140.492915 
L 136.140165 150.309945 
L 137.233278 158.27525 
L 138.326391 171.925211 
L 140.512617 217.919629 
L 141.60573 233.327699 
L 142.698843 237.728554 
L 143.791956 230.517959 
L 144.885069 213.897082 
L 147.071295 170.011581 
L 149.257521 120.460877 
L 150.350634 105.173755 
L 151.443747 96.76036 
L 152.53686 90.566728 
L 153.629972 83.53739 
L 155.816198 63.859834 
L 156.909311 60.648945 
L 158.002424 72.306509 
L 159.095537 99.087137 
L 161.281763 160.105954 
L 163.467989 213.140003 
L 164.561102 237.359467 
L 165.654215 259.061502 
L 166.747328 276.784799 
L 167.840441 287.937968 
L 168.933554 287.635359 
L 170.026667 268.377146 
L 171.11978 232.733068 
L 172.212893 191.636652 
L 173.306006 162.599671 
L 174.399118 145.527635 
L 175.492231 138.407763 
L 176.585344 138.927109 
L 177.678457 143.67232 
L 178.77157 147.777412 
L 179.864683 143.944393 
L 180.957796 126.837504 
L 182.050909 103.047226 
L 183.144022 95.910207 
L 184.237135 101.635292 
L 185.330248 108.953602 
L 186.423361 115.066897 
L 187.516474 116.37922 
L 188.609587 114.811815 
L 189.7027 117.160813 
L 190.795813 133.267416 
L 192.982039 184.888649 
L 194.075152 202.616595 
L 195.168264 212.261917 
L 196.261377 216.463577 
L 197.35449 219.305831 
L 198.447603 222.473949 
L 199.540716 222.34156 
L 200.633829 212.16007 
L 201.726942 185.381085 
L 202.820055 151.731403 
L 203.913168 128.184689 
L 205.006281 110.399087 
L 206.099394 96.195753 
L 207.192507 85.496255 
L 208.28562 77.765852 
L 209.378733 71.457012 
L 211.564959 56.46818 
L 212.658072 62.873624 
L 213.751185 86.548364 
L 218.123636 210.198631 
L 219.216749 235.37759 
L 220.309862 257.601756 
L 221.402975 276.628005 
L 222.496088 290.156213 
L 223.589201 294.674438 
L 224.682314 283.113059 
L 225.775427 251.297743 
L 226.86854 208.435987 
L 227.961653 174.591238 
L 229.054766 155.190116 
L 230.147879 145.908829 
L 231.240992 145.092818 
L 232.334105 149.715368 
L 233.427218 155.429493 
L 234.520331 155.808193 
L 235.613444 143.742626 
L 236.706556 118.863965 
L 237.799669 101.287528 
L 238.892782 100.117011 
L 239.985895 103.06421 
L 241.079008 105.586496 
L 242.172121 104.588243 
L 243.265234 100.134885 
L 244.358347 97.142174 
L 245.45146 104.428021 
L 246.544573 127.619389 
L 247.637686 155.797619 
L 248.730799 179.564206 
L 249.823912 197.231192 
L 250.917025 209.891316 
L 254.196364 242.914813 
L 255.289477 246.699079 
L 256.38259 236.657107 
L 257.475702 208.93329 
L 258.568815 172.7779 
L 259.661928 144.290446 
L 260.755041 123.284864 
L 261.848154 108.014789 
L 262.941267 98.74326 
L 264.03438 94.257457 
L 265.127493 91.807148 
L 266.220606 86.244917 
L 267.313719 74.25724 
L 268.406832 66.135112 
L 269.499945 77.764041 
L 270.593058 102.289076 
L 272.779284 159.855395 
L 273.872397 185.650424 
L 277.151736 249.604539 
L 278.244848 267.849552 
L 279.337961 279.220392 
L 280.431074 278.645487 
L 281.524187 260.383667 
L 282.6173 226.06943 
L 283.710413 186.297454 
L 284.803526 157.151392 
L 285.896639 138.323348 
L 286.989752 129.139531 
L 288.082865 127.984778 
L 289.175978 131.153524 
L 290.269091 133.938448 
L 291.362204 129.521105 
L 292.455317 112.718861 
L 293.54843 92.630491 
L 294.641543 90.696704 
L 295.734656 102.436453 
L 297.920882 129.186048 
L 299.013994 137.095896 
L 300.107107 141.749428 
L 301.20022 149.722603 
L 302.293333 169.258675 
L 303.386446 194.735025 
L 304.479559 215.195119 
L 305.572672 226.450132 
L 306.665785 227.235995 
L 307.758898 219.431534 
L 308.852011 207.050473 
L 309.945124 193.108845 
L 311.038237 175.341445 
L 313.224463 123.643723 
L 314.317576 107.602677 
L 315.410689 96.676592 
L 318.690028 68.638635 
L 319.78314 60.30668 
L 320.876253 56.405827 
L 321.969366 65.324809 
L 323.062479 90.84419 
L 326.341818 183.812653 
L 328.528044 237.854785 
L 329.621157 260.282868 
L 330.71427 278.678046 
L 331.807383 291.243504 
L 332.900496 293.919481 
L 333.993609 279.234107 
L 335.086722 245.60742 
L 336.179835 203.142598 
L 337.272948 171.030919 
L 338.366061 152.895047 
L 339.459174 144.943595 
L 340.552287 145.049892 
L 342.738512 155.494274 
L 343.831625 154.407588 
L 344.924738 140.2912 
L 346.017851 114.951308 
L 347.110964 100.12877 
L 348.204077 100.54769 
L 349.29719 103.782789 
L 350.390303 106.301722 
L 351.483416 104.905524 
L 352.576529 100.412653 
L 353.669642 98.399597 
L 354.762755 108.018337 
L 355.855868 132.858252 
L 356.948981 160.587697 
L 358.042094 183.348393 
L 359.135207 199.765548 
L 361.321433 222.422347 
L 362.414545 233.495138 
L 363.507658 242.798837 
L 364.600771 244.577106 
L 365.693884 231.647932 
L 366.786997 201.370867 
L 367.88011 165.654218 
L 368.973223 139.275231 
L 370.066336 119.374551 
L 371.159449 105.084957 
L 372.252562 96.576248 
L 373.345675 92.468047 
L 374.438788 89.65989 
L 375.531901 82.845671 
L 376.625014 70.522891 
L 377.718127 66.045276 
L 378.81124 81.625708 
L 379.904353 107.825887 
L 382.090579 166.099258 
L 383.183691 191.492723 
L 386.46303 255.443967 
L 387.556143 272.440955 
L 388.649256 281.717783 
L 389.742369 277.709591 
L 390.835482 255.446493 
L 393.021708 179.395097 
L 394.114821 153.162559 
L 395.207934 136.710395 
L 396.301047 129.833669 
L 397.39416 130.217393 
L 398.487273 133.998711 
L 398.487273 133.998711 
" style="fill:none;stroke:#2ca02c;stroke-linecap:square;stroke-width:1.5;"/>
   </g>
   <g id="line2d_18">
    <path clip-path="url(#p3437ae543c)" d="M 73.832727 105.571754 
L 74.92584 97.169787 
L 76.018953 99.700651 
L 77.112066 102.569996 
L 78.205179 101.052243 
L 80.391405 92.534706 
L 81.484518 94.713401 
L 82.577631 110.071599 
L 84.763857 164.816596 
L 85.85697 185.484469 
L 86.950083 201.301704 
L 89.136309 227.720208 
L 90.229421 239.805381 
L 91.322534 248.550612 
L 92.415647 247.338004 
L 93.50876 225.965808 
L 95.694986 159.927886 
L 96.788099 134.078223 
L 97.881212 115.300638 
L 98.974325 103.799105 
L 100.067438 98.41972 
L 101.160551 96.768433 
L 102.253664 93.626616 
L 103.346777 83.930487 
L 104.43989 70.592112 
L 105.533003 68.439325 
L 106.626116 83.719937 
L 109.905455 165.308727 
L 110.998567 188.273643 
L 114.277906 247.911427 
L 115.371019 263.468568 
L 116.464132 271.68155 
L 117.557245 267.918111 
L 118.650358 242.987999 
L 120.836584 171.228189 
L 121.929697 144.193891 
L 123.02281 127.23909 
L 124.115923 120.742963 
L 125.209036 121.734865 
L 126.302149 124.821517 
L 127.395262 123.988215 
L 128.488375 113.709431 
L 129.581488 95.609379 
L 130.674601 83.954774 
L 131.767713 88.575027 
L 133.953939 124.270779 
L 135.047052 137.781593 
L 137.233278 156.034217 
L 138.326391 170.618388 
L 140.512617 216.283021 
L 141.60573 232.112953 
L 142.698843 236.290742 
L 143.791956 227.589521 
L 144.885069 210.163242 
L 147.071295 167.92787 
L 149.257521 118.64434 
L 150.350634 102.599416 
L 151.443747 94.770413 
L 152.53686 89.701139 
L 153.629972 81.842661 
L 155.816198 61.526923 
L 156.909311 58.468094 
L 158.002424 69.881817 
L 159.095537 96.57795 
L 161.281763 157.951642 
L 163.467989 211.787422 
L 164.561102 235.161848 
L 165.654215 255.186925 
L 166.747328 271.037333 
L 167.840441 281.268086 
L 168.933554 282.516962 
L 170.026667 266.186058 
L 172.212893 188.791363 
L 173.306006 159.741273 
L 174.399118 142.13419 
L 175.492231 135.925744 
L 176.585344 137.585484 
L 177.678457 142.656489 
L 178.77157 145.790887 
L 179.864683 139.899085 
L 180.957796 121.76102 
L 182.050909 101.265704 
L 183.144022 93.130972 
L 184.237135 98.98727 
L 185.330248 108.100517 
L 186.423361 112.649336 
L 187.516474 113.150546 
L 188.609587 112.229676 
L 189.7027 116.155421 
L 190.795813 131.838117 
L 192.982039 183.579692 
L 194.075152 200.757371 
L 195.168264 210.225615 
L 196.261377 214.58668 
L 198.447603 220.691934 
L 199.540716 220.478533 
L 200.633829 208.329597 
L 203.913168 125.686293 
L 205.006281 107.76687 
L 206.099394 94.421211 
L 207.192507 84.341455 
L 208.28562 76.535956 
L 209.378733 69.652753 
L 211.564959 53.568 
L 212.658072 60.480755 
L 213.751185 83.657368 
L 218.123636 208.617937 
L 219.216749 233.346415 
L 220.309862 253.94754 
L 221.402975 270.76979 
L 222.496088 282.733562 
L 223.589201 287.621208 
L 224.682314 279.649887 
L 225.775427 247.089408 
L 226.86854 203.863855 
L 227.961653 171.995487 
L 229.054766 151.709737 
L 230.147879 143.190917 
L 231.240992 143.464456 
L 233.427218 153.840954 
L 234.520331 152.635176 
L 235.613444 138.348618 
L 236.706556 115.150188 
L 237.799669 99.420316 
L 238.892782 96.984895 
L 239.985895 101.943023 
L 241.079008 103.878204 
L 242.172121 101.817856 
L 243.265234 97.609261 
L 244.358347 95.774341 
L 245.45146 103.272673 
L 246.544573 125.54461 
L 247.637686 154.287458 
L 248.730799 177.789115 
L 249.823912 195.196101 
L 250.917025 208.246793 
L 253.103251 231.255102 
L 254.196364 241.176162 
L 255.289477 245.299769 
L 256.38259 233.639826 
L 259.661928 141.963308 
L 260.755041 120.34477 
L 261.848154 105.631463 
L 262.941267 97.056614 
L 264.03438 93.312807 
L 265.127493 90.665336 
L 266.220606 83.922798 
L 267.313719 71.362285 
L 268.406832 64.401741 
L 269.499945 74.666058 
L 270.593058 99.880056 
L 272.779284 157.903404 
L 273.872397 183.923808 
L 276.058623 227.086887 
L 277.151736 246.562302 
L 278.244848 263.236863 
L 279.337961 273.931686 
L 280.431074 274.965599 
L 281.524187 257.981272 
L 283.710413 183.592935 
L 284.803526 154.427882 
L 285.896639 135.007343 
L 286.989752 126.539185 
L 288.082865 126.483926 
L 289.175978 130.261319 
L 290.269091 132.100011 
L 291.362204 125.589836 
L 293.54843 90.986763 
L 294.641543 87.650544 
L 295.734656 99.704814 
L 296.827769 115.418971 
L 297.920882 126.782957 
L 299.013994 133.878647 
L 300.107107 138.927738 
L 301.20022 148.408416 
L 302.293333 167.796705 
L 303.386446 193.052478 
L 304.479559 213.903822 
L 305.572672 225.015188 
L 306.665785 225.040809 
L 307.758898 216.35184 
L 308.852011 204.088645 
L 309.945124 190.471336 
L 311.038237 172.617634 
L 313.224463 121.93949 
L 314.317576 104.971664 
L 315.410689 94.736519 
L 316.503802 86.365478 
L 319.78314 57.859743 
L 320.876253 53.886865 
L 321.969366 63.037144 
L 323.062479 88.219651 
L 326.341818 182.090329 
L 327.434931 210.565001 
L 328.528044 235.553024 
L 329.621157 256.282223 
L 330.71427 272.586983 
L 331.807383 283.783423 
L 332.900496 287.260298 
L 333.993609 276.464066 
L 335.086722 241.006168 
L 336.179835 199.123122 
L 337.272948 168.290275 
L 338.366061 149.399774 
L 339.459174 142.315334 
L 340.552287 143.53273 
L 341.645399 148.956512 
L 342.738512 153.723163 
L 343.831625 150.888942 
L 344.924738 134.922909 
L 346.017851 111.86504 
L 347.110964 97.987544 
L 348.204077 97.529416 
L 349.29719 102.949772 
L 350.390303 104.384702 
L 351.483416 102.045293 
L 352.576529 97.986983 
L 353.669642 97.216258 
L 354.762755 106.683929 
L 355.855868 130.818543 
L 356.948981 159.153095 
L 358.042094 181.503728 
L 359.135207 197.780586 
L 361.321433 220.997788 
L 362.414545 232.025235 
L 363.507658 241.149176 
L 364.600771 243.167692 
L 365.693884 227.888677 
L 367.88011 163.311358 
L 368.973223 136.791735 
L 370.066336 116.498135 
L 371.159449 102.883648 
L 372.252562 95.065069 
L 374.438788 88.317526 
L 375.531901 80.317416 
L 376.625014 67.759565 
L 377.718127 64.329473 
L 378.81124 78.354887 
L 380.997466 135.373391 
L 382.090579 164.139681 
L 383.183691 189.937477 
L 385.369917 232.848607 
L 386.46303 251.874149 
L 387.556143 267.361032 
L 388.649256 276.333264 
L 389.742369 274.563677 
L 390.835482 252.375867 
L 393.021708 177.360454 
L 394.114821 150.110905 
L 395.207934 133.529331 
L 396.301047 127.490816 
L 397.39416 128.970838 
L 398.487273 133.013415 
L 398.487273 133.013415 
" style="fill:none;stroke:#d62728;stroke-linecap:square;stroke-width:1.5;"/>
   </g>
   <g id="patch_3">
    <path d="M 57.6 307.584 
L 57.6 41.472 
" style="fill:none;stroke:#000000;stroke-linecap:square;stroke-linejoin:miter;stroke-width:0.8;"/>
   </g>
   <g id="patch_4">
    <path d="M 414.72 307.584 
L 414.72 41.472 
" style="fill:none;stroke:#000000;stroke-linecap:square;stroke-linejoin:miter;stroke-width:0.8;"/>
   </g>
   <g id="patch_5">
    <path d="M 57.6 307.584 
L 414.72 307.584 
" style="fill:none;stroke:#000000;stroke-linecap:square;stroke-linejoin:miter;stroke-width:0.8;"/>
   </g>
   <g id="patch_6">
    <path d="M 57.6 41.472 
L 414.72 41.472 
" style="fill:none;stroke:#000000;stroke-linecap:square;stroke-linejoin:miter;stroke-width:0.8;"/>
   </g>
   <g id="text_15">
    <!-- Plot of Train Data vs MCMC Uncertainty  -->
    <defs>
     <path d="M 19.671875 64.796875 
L 19.671875 37.40625 
L 32.078125 37.40625 
Q 38.96875 37.40625 42.71875 40.96875 
Q 46.484375 44.53125 46.484375 51.125 
Q 46.484375 57.671875 42.71875 61.234375 
Q 38.96875 64.796875 32.078125 64.796875 
z
M 9.8125 72.90625 
L 32.078125 72.90625 
Q 44.34375 72.90625 50.609375 67.359375 
Q 56.890625 61.8125 56.890625 51.125 
Q 56.890625 40.328125 50.609375 34.8125 
Q 44.34375 29.296875 32.078125 29.296875 
L 19.671875 29.296875 
L 19.671875 0 
L 9.8125 0 
z
" id="DejaVuSans-50"/>
     <path d="M 9.421875 75.984375 
L 18.40625 75.984375 
L 18.40625 0 
L 9.421875 0 
z
" id="DejaVuSans-6c"/>
     <path d="M 30.609375 48.390625 
Q 23.390625 48.390625 19.1875 42.75 
Q 14.984375 37.109375 14.984375 27.296875 
Q 14.984375 17.484375 19.15625 11.84375 
Q 23.34375 6.203125 30.609375 6.203125 
Q 37.796875 6.203125 41.984375 11.859375 
Q 46.1875 17.53125 46.1875 27.296875 
Q 46.1875 37.015625 41.984375 42.703125 
Q 37.796875 48.390625 30.609375 48.390625 
M 30.609375 56 
Q 42.328125 56 49.015625 48.375 
Q 55.71875 40.765625 55.71875 27.296875 
Q 55.71875 13.875 49.015625 6.21875 
Q 42.328125 -1.421875 30.609375 -1.421875 
Q 18.84375 -1.421875 12.171875 6.21875 
Q 5.515625 13.875 5.515625 27.296875 
Q 5.515625 40.765625 12.171875 48.375 
Q 18.84375 56 30.609375 56 
" id="DejaVuSans-6f"/>
     <path d="M 18.3125 70.21875 
L 18.3125 54.6875 
L 36.8125 54.6875 
L 36.8125 47.703125 
L 18.3125 47.703125 
L 18.3125 18.015625 
Q 18.3125 11.328125 20.140625 9.421875 
Q 21.96875 7.515625 27.59375 7.515625 
L 36.8125 7.515625 
L 36.8125 0 
L 27.59375 0 
Q 17.1875 0 13.234375 3.875 
Q 9.28125 7.765625 9.28125 18.015625 
L 9.28125 47.703125 
L 2.6875 47.703125 
L 2.6875 54.6875 
L 9.28125 54.6875 
L 9.28125 70.21875 
z
" id="DejaVuSans-74"/>
     <path id="DejaVuSans-20"/>
     <path d="M 37.109375 75.984375 
L 37.109375 68.5 
L 28.515625 68.5 
Q 23.6875 68.5 21.796875 66.546875 
Q 19.921875 64.59375 19.921875 59.515625 
L 19.921875 54.6875 
L 34.71875 54.6875 
L 34.71875 47.703125 
L 19.921875 47.703125 
L 19.921875 0 
L 10.890625 0 
L 10.890625 47.703125 
L 2.296875 47.703125 
L 2.296875 54.6875 
L 10.890625 54.6875 
L 10.890625 58.5 
Q 10.890625 67.625 15.140625 71.796875 
Q 19.390625 75.984375 28.609375 75.984375 
z
" id="DejaVuSans-66"/>
     <path d="M -0.296875 72.90625 
L 61.375 72.90625 
L 61.375 64.59375 
L 35.5 64.59375 
L 35.5 0 
L 25.59375 0 
L 25.59375 64.59375 
L -0.296875 64.59375 
z
" id="DejaVuSans-54"/>
     <path d="M 41.109375 46.296875 
Q 39.59375 47.171875 37.8125 47.578125 
Q 36.03125 48 33.890625 48 
Q 26.265625 48 22.1875 43.046875 
Q 18.109375 38.09375 18.109375 28.8125 
L 18.109375 0 
L 9.078125 0 
L 9.078125 54.6875 
L 18.109375 54.6875 
L 18.109375 46.1875 
Q 20.953125 51.171875 25.484375 53.578125 
Q 30.03125 56 36.53125 56 
Q 37.453125 56 38.578125 55.875 
Q 39.703125 55.765625 41.0625 55.515625 
z
" id="DejaVuSans-72"/>
     <path d="M 34.28125 27.484375 
Q 23.390625 27.484375 19.1875 25 
Q 14.984375 22.515625 14.984375 16.5 
Q 14.984375 11.71875 18.140625 8.90625 
Q 21.296875 6.109375 26.703125 6.109375 
Q 34.1875 6.109375 38.703125 11.40625 
Q 43.21875 16.703125 43.21875 25.484375 
L 43.21875 27.484375 
z
M 52.203125 31.203125 
L 52.203125 0 
L 43.21875 0 
L 43.21875 8.296875 
Q 40.140625 3.328125 35.546875 0.953125 
Q 30.953125 -1.421875 24.3125 -1.421875 
Q 15.921875 -1.421875 10.953125 3.296875 
Q 6 8.015625 6 15.921875 
Q 6 25.140625 12.171875 29.828125 
Q 18.359375 34.515625 30.609375 34.515625 
L 43.21875 34.515625 
L 43.21875 35.40625 
Q 43.21875 41.609375 39.140625 45 
Q 35.0625 48.390625 27.6875 48.390625 
Q 23 48.390625 18.546875 47.265625 
Q 14.109375 46.140625 10.015625 43.890625 
L 10.015625 52.203125 
Q 14.9375 54.109375 19.578125 55.046875 
Q 24.21875 56 28.609375 56 
Q 40.484375 56 46.34375 49.84375 
Q 52.203125 43.703125 52.203125 31.203125 
" id="DejaVuSans-61"/>
     <path d="M 9.421875 54.6875 
L 18.40625 54.6875 
L 18.40625 0 
L 9.421875 0 
z
M 9.421875 75.984375 
L 18.40625 75.984375 
L 18.40625 64.59375 
L 9.421875 64.59375 
z
" id="DejaVuSans-69"/>
     <path d="M 54.890625 33.015625 
L 54.890625 0 
L 45.90625 0 
L 45.90625 32.71875 
Q 45.90625 40.484375 42.875 44.328125 
Q 39.84375 48.1875 33.796875 48.1875 
Q 26.515625 48.1875 22.3125 43.546875 
Q 18.109375 38.921875 18.109375 30.90625 
L 18.109375 0 
L 9.078125 0 
L 9.078125 54.6875 
L 18.109375 54.6875 
L 18.109375 46.1875 
Q 21.34375 51.125 25.703125 53.5625 
Q 30.078125 56 35.796875 56 
Q 45.21875 56 50.046875 50.171875 
Q 54.890625 44.34375 54.890625 33.015625 
" id="DejaVuSans-6e"/>
     <path d="M 19.671875 64.796875 
L 19.671875 8.109375 
L 31.59375 8.109375 
Q 46.6875 8.109375 53.6875 14.9375 
Q 60.6875 21.78125 60.6875 36.53125 
Q 60.6875 51.171875 53.6875 57.984375 
Q 46.6875 64.796875 31.59375 64.796875 
z
M 9.8125 72.90625 
L 30.078125 72.90625 
Q 51.265625 72.90625 61.171875 64.09375 
Q 71.09375 55.28125 71.09375 36.53125 
Q 71.09375 17.671875 61.125 8.828125 
Q 51.171875 0 30.078125 0 
L 9.8125 0 
z
" id="DejaVuSans-44"/>
     <path d="M 2.984375 54.6875 
L 12.5 54.6875 
L 29.59375 8.796875 
L 46.6875 54.6875 
L 56.203125 54.6875 
L 35.6875 0 
L 23.484375 0 
z
" id="DejaVuSans-76"/>
     <path d="M 44.28125 53.078125 
L 44.28125 44.578125 
Q 40.484375 46.53125 36.375 47.5 
Q 32.28125 48.484375 27.875 48.484375 
Q 21.1875 48.484375 17.84375 46.4375 
Q 14.5 44.390625 14.5 40.28125 
Q 14.5 37.15625 16.890625 35.375 
Q 19.28125 33.59375 26.515625 31.984375 
L 29.59375 31.296875 
Q 39.15625 29.25 43.1875 25.515625 
Q 47.21875 21.78125 47.21875 15.09375 
Q 47.21875 7.46875 41.1875 3.015625 
Q 35.15625 -1.421875 24.609375 -1.421875 
Q 20.21875 -1.421875 15.453125 -0.5625 
Q 10.6875 0.296875 5.421875 2 
L 5.421875 11.28125 
Q 10.40625 8.6875 15.234375 7.390625 
Q 20.0625 6.109375 24.8125 6.109375 
Q 31.15625 6.109375 34.5625 8.28125 
Q 37.984375 10.453125 37.984375 14.40625 
Q 37.984375 18.0625 35.515625 20.015625 
Q 33.0625 21.96875 24.703125 23.78125 
L 21.578125 24.515625 
Q 13.234375 26.265625 9.515625 29.90625 
Q 5.8125 33.546875 5.8125 39.890625 
Q 5.8125 47.609375 11.28125 51.796875 
Q 16.75 56 26.8125 56 
Q 31.78125 56 36.171875 55.265625 
Q 40.578125 54.546875 44.28125 53.078125 
" id="DejaVuSans-73"/>
     <path d="M 9.8125 72.90625 
L 24.515625 72.90625 
L 43.109375 23.296875 
L 61.8125 72.90625 
L 76.515625 72.90625 
L 76.515625 0 
L 66.890625 0 
L 66.890625 64.015625 
L 48.09375 14.015625 
L 38.1875 14.015625 
L 19.390625 64.015625 
L 19.390625 0 
L 9.8125 0 
z
" id="DejaVuSans-4d"/>
     <path d="M 64.40625 67.28125 
L 64.40625 56.890625 
Q 59.421875 61.53125 53.78125 63.8125 
Q 48.140625 66.109375 41.796875 66.109375 
Q 29.296875 66.109375 22.65625 58.46875 
Q 16.015625 50.828125 16.015625 36.375 
Q 16.015625 21.96875 22.65625 14.328125 
Q 29.296875 6.6875 41.796875 6.6875 
Q 48.140625 6.6875 53.78125 8.984375 
Q 59.421875 11.28125 64.40625 15.921875 
L 64.40625 5.609375 
Q 59.234375 2.09375 53.4375 0.328125 
Q 47.65625 -1.421875 41.21875 -1.421875 
Q 24.65625 -1.421875 15.125 8.703125 
Q 5.609375 18.84375 5.609375 36.375 
Q 5.609375 53.953125 15.125 64.078125 
Q 24.65625 74.21875 41.21875 74.21875 
Q 47.75 74.21875 53.53125 72.484375 
Q 59.328125 70.75 64.40625 67.28125 
" id="DejaVuSans-43"/>
     <path d="M 8.6875 72.90625 
L 18.609375 72.90625 
L 18.609375 28.609375 
Q 18.609375 16.890625 22.84375 11.734375 
Q 27.09375 6.59375 36.625 6.59375 
Q 46.09375 6.59375 50.34375 11.734375 
Q 54.59375 16.890625 54.59375 28.609375 
L 54.59375 72.90625 
L 64.5 72.90625 
L 64.5 27.390625 
Q 64.5 13.140625 57.4375 5.859375 
Q 50.390625 -1.421875 36.625 -1.421875 
Q 22.796875 -1.421875 15.734375 5.859375 
Q 8.6875 13.140625 8.6875 27.390625 
z
" id="DejaVuSans-55"/>
     <path d="M 48.78125 52.59375 
L 48.78125 44.1875 
Q 44.96875 46.296875 41.140625 47.34375 
Q 37.3125 48.390625 33.40625 48.390625 
Q 24.65625 48.390625 19.8125 42.84375 
Q 14.984375 37.3125 14.984375 27.296875 
Q 14.984375 17.28125 19.8125 11.734375 
Q 24.65625 6.203125 33.40625 6.203125 
Q 37.3125 6.203125 41.140625 7.25 
Q 44.96875 8.296875 48.78125 10.40625 
L 48.78125 2.09375 
Q 45.015625 0.34375 40.984375 -0.53125 
Q 36.96875 -1.421875 32.421875 -1.421875 
Q 20.0625 -1.421875 12.78125 6.34375 
Q 5.515625 14.109375 5.515625 27.296875 
Q 5.515625 40.671875 12.859375 48.328125 
Q 20.21875 56 33.015625 56 
Q 37.15625 56 41.109375 55.140625 
Q 45.0625 54.296875 48.78125 52.59375 
" id="DejaVuSans-63"/>
     <path d="M 56.203125 29.59375 
L 56.203125 25.203125 
L 14.890625 25.203125 
Q 15.484375 15.921875 20.484375 11.0625 
Q 25.484375 6.203125 34.421875 6.203125 
Q 39.59375 6.203125 44.453125 7.46875 
Q 49.3125 8.734375 54.109375 11.28125 
L 54.109375 2.78125 
Q 49.265625 0.734375 44.1875 -0.34375 
Q 39.109375 -1.421875 33.890625 -1.421875 
Q 20.796875 -1.421875 13.15625 6.1875 
Q 5.515625 13.8125 5.515625 26.8125 
Q 5.515625 40.234375 12.765625 48.109375 
Q 20.015625 56 32.328125 56 
Q 43.359375 56 49.78125 48.890625 
Q 56.203125 41.796875 56.203125 29.59375 
M 47.21875 32.234375 
Q 47.125 39.59375 43.09375 43.984375 
Q 39.0625 48.390625 32.421875 48.390625 
Q 24.90625 48.390625 20.390625 44.140625 
Q 15.875 39.890625 15.1875 32.171875 
z
" id="DejaVuSans-65"/>
     <path d="M 32.171875 -5.078125 
Q 28.375 -14.84375 24.75 -17.8125 
Q 21.140625 -20.796875 15.09375 -20.796875 
L 7.90625 -20.796875 
L 7.90625 -13.28125 
L 13.1875 -13.28125 
Q 16.890625 -13.28125 18.9375 -11.515625 
Q 21 -9.765625 23.484375 -3.21875 
L 25.09375 0.875 
L 2.984375 54.6875 
L 12.5 54.6875 
L 29.59375 11.921875 
L 46.6875 54.6875 
L 56.203125 54.6875 
z
" id="DejaVuSans-79"/>
    </defs>
    <g transform="translate(115.666875 35.472)scale(0.12 -0.12)">
     <use xlink:href="#DejaVuSans-50"/>
     <use x="60.302734" xlink:href="#DejaVuSans-6c"/>
     <use x="88.085938" xlink:href="#DejaVuSans-6f"/>
     <use x="149.267578" xlink:href="#DejaVuSans-74"/>
     <use x="188.476562" xlink:href="#DejaVuSans-20"/>
     <use x="220.263672" xlink:href="#DejaVuSans-6f"/>
     <use x="281.445312" xlink:href="#DejaVuSans-66"/>
     <use x="316.650391" xlink:href="#DejaVuSans-20"/>
     <use x="348.4375" xlink:href="#DejaVuSans-54"/>
     <use x="409.302734" xlink:href="#DejaVuSans-72"/>
     <use x="450.416016" xlink:href="#DejaVuSans-61"/>
     <use x="511.695312" xlink:href="#DejaVuSans-69"/>
     <use x="539.478516" xlink:href="#DejaVuSans-6e"/>
     <use x="602.857422" xlink:href="#DejaVuSans-20"/>
     <use x="634.644531" xlink:href="#DejaVuSans-44"/>
     <use x="711.646484" xlink:href="#DejaVuSans-61"/>
     <use x="772.925781" xlink:href="#DejaVuSans-74"/>
     <use x="812.134766" xlink:href="#DejaVuSans-61"/>
     <use x="873.414062" xlink:href="#DejaVuSans-20"/>
     <use x="905.201172" xlink:href="#DejaVuSans-76"/>
     <use x="964.380859" xlink:href="#DejaVuSans-73"/>
     <use x="1016.480469" xlink:href="#DejaVuSans-20"/>
     <use x="1048.267578" xlink:href="#DejaVuSans-4d"/>
     <use x="1134.546875" xlink:href="#DejaVuSans-43"/>
     <use x="1204.371094" xlink:href="#DejaVuSans-4d"/>
     <use x="1290.650391" xlink:href="#DejaVuSans-43"/>
     <use x="1360.474609" xlink:href="#DejaVuSans-20"/>
     <use x="1392.261719" xlink:href="#DejaVuSans-55"/>
     <use x="1465.455078" xlink:href="#DejaVuSans-6e"/>
     <use x="1528.833984" xlink:href="#DejaVuSans-63"/>
     <use x="1583.814453" xlink:href="#DejaVuSans-65"/>
     <use x="1645.337891" xlink:href="#DejaVuSans-72"/>
     <use x="1686.451172" xlink:href="#DejaVuSans-74"/>
     <use x="1725.660156" xlink:href="#DejaVuSans-61"/>
     <use x="1786.939453" xlink:href="#DejaVuSans-69"/>
     <use x="1814.722656" xlink:href="#DejaVuSans-6e"/>
     <use x="1878.101562" xlink:href="#DejaVuSans-74"/>
     <use x="1917.310547" xlink:href="#DejaVuSans-79"/>
     <use x="1976.490234" xlink:href="#DejaVuSans-20"/>
    </g>
   </g>
   <g id="legend_1">
    <g id="patch_7">
     <path d="M 277.843437 108.1845 
L 407.72 108.1845 
Q 409.72 108.1845 409.72 106.1845 
L 409.72 48.472 
Q 409.72 46.472 407.72 46.472 
L 277.843437 46.472 
Q 275.843437 46.472 275.843437 48.472 
L 275.843437 106.1845 
Q 275.843437 108.1845 277.843437 108.1845 
z
" style="fill:#ffffff;opacity:0.8;stroke:#cccccc;stroke-linejoin:miter;"/>
    </g>
    <g id="line2d_19">
     <path d="M 279.843437 54.570438 
L 299.843437 54.570438 
" style="fill:none;stroke:#1f77b4;stroke-linecap:square;stroke-width:1.5;"/>
    </g>
    <g id="line2d_20"/>
    <g id="text_16">
     <!-- actual -->
     <defs>
      <path d="M 8.5 21.578125 
L 8.5 54.6875 
L 17.484375 54.6875 
L 17.484375 21.921875 
Q 17.484375 14.15625 20.5 10.265625 
Q 23.53125 6.390625 29.59375 6.390625 
Q 36.859375 6.390625 41.078125 11.03125 
Q 45.3125 15.671875 45.3125 23.6875 
L 45.3125 54.6875 
L 54.296875 54.6875 
L 54.296875 0 
L 45.3125 0 
L 45.3125 8.40625 
Q 42.046875 3.421875 37.71875 1 
Q 33.40625 -1.421875 27.6875 -1.421875 
Q 18.265625 -1.421875 13.375 4.4375 
Q 8.5 10.296875 8.5 21.578125 
M 31.109375 56 
z
" id="DejaVuSans-75"/>
     </defs>
     <g transform="translate(307.843437 58.070438)scale(0.1 -0.1)">
      <use xlink:href="#DejaVuSans-61"/>
      <use x="61.279297" xlink:href="#DejaVuSans-63"/>
      <use x="116.259766" xlink:href="#DejaVuSans-74"/>
      <use x="155.46875" xlink:href="#DejaVuSans-75"/>
      <use x="218.847656" xlink:href="#DejaVuSans-61"/>
      <use x="280.126953" xlink:href="#DejaVuSans-6c"/>
     </g>
    </g>
    <g id="line2d_21">
     <path d="M 279.843437 69.248563 
L 299.843437 69.248563 
" style="fill:none;stroke:#ff7f0e;stroke-linecap:square;stroke-width:1.5;"/>
    </g>
    <g id="line2d_22"/>
    <g id="text_17">
     <!-- pred. (mean) -->
     <defs>
      <path d="M 18.109375 8.203125 
L 18.109375 -20.796875 
L 9.078125 -20.796875 
L 9.078125 54.6875 
L 18.109375 54.6875 
L 18.109375 46.390625 
Q 20.953125 51.265625 25.265625 53.625 
Q 29.59375 56 35.59375 56 
Q 45.5625 56 51.78125 48.09375 
Q 58.015625 40.1875 58.015625 27.296875 
Q 58.015625 14.40625 51.78125 6.484375 
Q 45.5625 -1.421875 35.59375 -1.421875 
Q 29.59375 -1.421875 25.265625 0.953125 
Q 20.953125 3.328125 18.109375 8.203125 
M 48.6875 27.296875 
Q 48.6875 37.203125 44.609375 42.84375 
Q 40.53125 48.484375 33.40625 48.484375 
Q 26.265625 48.484375 22.1875 42.84375 
Q 18.109375 37.203125 18.109375 27.296875 
Q 18.109375 17.390625 22.1875 11.75 
Q 26.265625 6.109375 33.40625 6.109375 
Q 40.53125 6.109375 44.609375 11.75 
Q 48.6875 17.390625 48.6875 27.296875 
" id="DejaVuSans-70"/>
      <path d="M 45.40625 46.390625 
L 45.40625 75.984375 
L 54.390625 75.984375 
L 54.390625 0 
L 45.40625 0 
L 45.40625 8.203125 
Q 42.578125 3.328125 38.25 0.953125 
Q 33.9375 -1.421875 27.875 -1.421875 
Q 17.96875 -1.421875 11.734375 6.484375 
Q 5.515625 14.40625 5.515625 27.296875 
Q 5.515625 40.1875 11.734375 48.09375 
Q 17.96875 56 27.875 56 
Q 33.9375 56 38.25 53.625 
Q 42.578125 51.265625 45.40625 46.390625 
M 14.796875 27.296875 
Q 14.796875 17.390625 18.875 11.75 
Q 22.953125 6.109375 30.078125 6.109375 
Q 37.203125 6.109375 41.296875 11.75 
Q 45.40625 17.390625 45.40625 27.296875 
Q 45.40625 37.203125 41.296875 42.84375 
Q 37.203125 48.484375 30.078125 48.484375 
Q 22.953125 48.484375 18.875 42.84375 
Q 14.796875 37.203125 14.796875 27.296875 
" id="DejaVuSans-64"/>
      <path d="M 31 75.875 
Q 24.46875 64.65625 21.28125 53.65625 
Q 18.109375 42.671875 18.109375 31.390625 
Q 18.109375 20.125 21.3125 9.0625 
Q 24.515625 -2 31 -13.1875 
L 23.1875 -13.1875 
Q 15.875 -1.703125 12.234375 9.375 
Q 8.59375 20.453125 8.59375 31.390625 
Q 8.59375 42.28125 12.203125 53.3125 
Q 15.828125 64.359375 23.1875 75.875 
z
" id="DejaVuSans-28"/>
      <path d="M 52 44.1875 
Q 55.375 50.25 60.0625 53.125 
Q 64.75 56 71.09375 56 
Q 79.640625 56 84.28125 50.015625 
Q 88.921875 44.046875 88.921875 33.015625 
L 88.921875 0 
L 79.890625 0 
L 79.890625 32.71875 
Q 79.890625 40.578125 77.09375 44.375 
Q 74.3125 48.1875 68.609375 48.1875 
Q 61.625 48.1875 57.5625 43.546875 
Q 53.515625 38.921875 53.515625 30.90625 
L 53.515625 0 
L 44.484375 0 
L 44.484375 32.71875 
Q 44.484375 40.625 41.703125 44.40625 
Q 38.921875 48.1875 33.109375 48.1875 
Q 26.21875 48.1875 22.15625 43.53125 
Q 18.109375 38.875 18.109375 30.90625 
L 18.109375 0 
L 9.078125 0 
L 9.078125 54.6875 
L 18.109375 54.6875 
L 18.109375 46.1875 
Q 21.1875 51.21875 25.484375 53.609375 
Q 29.78125 56 35.6875 56 
Q 41.65625 56 45.828125 52.96875 
Q 50 49.953125 52 44.1875 
" id="DejaVuSans-6d"/>
      <path d="M 8.015625 75.875 
L 15.828125 75.875 
Q 23.140625 64.359375 26.78125 53.3125 
Q 30.421875 42.28125 30.421875 31.390625 
Q 30.421875 20.453125 26.78125 9.375 
Q 23.140625 -1.703125 15.828125 -13.1875 
L 8.015625 -13.1875 
Q 14.5 -2 17.703125 9.0625 
Q 20.90625 20.125 20.90625 31.390625 
Q 20.90625 42.671875 17.703125 53.65625 
Q 14.5 64.65625 8.015625 75.875 
" id="DejaVuSans-29"/>
     </defs>
     <g transform="translate(307.843437 72.748563)scale(0.1 -0.1)">
      <use xlink:href="#DejaVuSans-70"/>
      <use x="63.476562" xlink:href="#DejaVuSans-72"/>
      <use x="104.558594" xlink:href="#DejaVuSans-65"/>
      <use x="166.082031" xlink:href="#DejaVuSans-64"/>
      <use x="229.558594" xlink:href="#DejaVuSans-2e"/>
      <use x="261.345703" xlink:href="#DejaVuSans-20"/>
      <use x="293.132812" xlink:href="#DejaVuSans-28"/>
      <use x="332.146484" xlink:href="#DejaVuSans-6d"/>
      <use x="429.558594" xlink:href="#DejaVuSans-65"/>
      <use x="491.082031" xlink:href="#DejaVuSans-61"/>
      <use x="552.361328" xlink:href="#DejaVuSans-6e"/>
      <use x="615.740234" xlink:href="#DejaVuSans-29"/>
     </g>
    </g>
    <g id="line2d_23">
     <path d="M 279.843437 83.926688 
L 299.843437 83.926688 
" style="fill:none;stroke:#2ca02c;stroke-linecap:square;stroke-width:1.5;"/>
    </g>
    <g id="line2d_24"/>
    <g id="text_18">
     <!-- pred.(5th percen.) -->
     <defs>
      <path d="M 54.890625 33.015625 
L 54.890625 0 
L 45.90625 0 
L 45.90625 32.71875 
Q 45.90625 40.484375 42.875 44.328125 
Q 39.84375 48.1875 33.796875 48.1875 
Q 26.515625 48.1875 22.3125 43.546875 
Q 18.109375 38.921875 18.109375 30.90625 
L 18.109375 0 
L 9.078125 0 
L 9.078125 75.984375 
L 18.109375 75.984375 
L 18.109375 46.1875 
Q 21.34375 51.125 25.703125 53.5625 
Q 30.078125 56 35.796875 56 
Q 45.21875 56 50.046875 50.171875 
Q 54.890625 44.34375 54.890625 33.015625 
" id="DejaVuSans-68"/>
     </defs>
     <g transform="translate(307.843437 87.426688)scale(0.1 -0.1)">
      <use xlink:href="#DejaVuSans-70"/>
      <use x="63.476562" xlink:href="#DejaVuSans-72"/>
      <use x="104.558594" xlink:href="#DejaVuSans-65"/>
      <use x="166.082031" xlink:href="#DejaVuSans-64"/>
      <use x="229.558594" xlink:href="#DejaVuSans-2e"/>
      <use x="261.345703" xlink:href="#DejaVuSans-28"/>
      <use x="300.359375" xlink:href="#DejaVuSans-35"/>
      <use x="363.982422" xlink:href="#DejaVuSans-74"/>
      <use x="403.191406" xlink:href="#DejaVuSans-68"/>
      <use x="466.570312" xlink:href="#DejaVuSans-20"/>
      <use x="498.357422" xlink:href="#DejaVuSans-70"/>
      <use x="561.833984" xlink:href="#DejaVuSans-65"/>
      <use x="623.357422" xlink:href="#DejaVuSans-72"/>
      <use x="664.439453" xlink:href="#DejaVuSans-63"/>
      <use x="719.419922" xlink:href="#DejaVuSans-65"/>
      <use x="780.943359" xlink:href="#DejaVuSans-6e"/>
      <use x="844.322266" xlink:href="#DejaVuSans-2e"/>
      <use x="876.109375" xlink:href="#DejaVuSans-29"/>
     </g>
    </g>
    <g id="line2d_25">
     <path d="M 279.843437 98.604813 
L 299.843437 98.604813 
" style="fill:none;stroke:#d62728;stroke-linecap:square;stroke-width:1.5;"/>
    </g>
    <g id="line2d_26"/>
    <g id="text_19">
     <!-- pred.(95th percen.) -->
     <defs>
      <path d="M 10.984375 1.515625 
L 10.984375 10.5 
Q 14.703125 8.734375 18.5 7.8125 
Q 22.3125 6.890625 25.984375 6.890625 
Q 35.75 6.890625 40.890625 13.453125 
Q 46.046875 20.015625 46.78125 33.40625 
Q 43.953125 29.203125 39.59375 26.953125 
Q 35.25 24.703125 29.984375 24.703125 
Q 19.046875 24.703125 12.671875 31.3125 
Q 6.296875 37.9375 6.296875 49.421875 
Q 6.296875 60.640625 12.9375 67.421875 
Q 19.578125 74.21875 30.609375 74.21875 
Q 43.265625 74.21875 49.921875 64.515625 
Q 56.59375 54.828125 56.59375 36.375 
Q 56.59375 19.140625 48.40625 8.859375 
Q 40.234375 -1.421875 26.421875 -1.421875 
Q 22.703125 -1.421875 18.890625 -0.6875 
Q 15.09375 0.046875 10.984375 1.515625 
M 30.609375 32.421875 
Q 37.25 32.421875 41.125 36.953125 
Q 45.015625 41.5 45.015625 49.421875 
Q 45.015625 57.28125 41.125 61.84375 
Q 37.25 66.40625 30.609375 66.40625 
Q 23.96875 66.40625 20.09375 61.84375 
Q 16.21875 57.28125 16.21875 49.421875 
Q 16.21875 41.5 20.09375 36.953125 
Q 23.96875 32.421875 30.609375 32.421875 
" id="DejaVuSans-39"/>
     </defs>
     <g transform="translate(307.843437 102.104813)scale(0.1 -0.1)">
      <use xlink:href="#DejaVuSans-70"/>
      <use x="63.476562" xlink:href="#DejaVuSans-72"/>
      <use x="104.558594" xlink:href="#DejaVuSans-65"/>
      <use x="166.082031" xlink:href="#DejaVuSans-64"/>
      <use x="229.558594" xlink:href="#DejaVuSans-2e"/>
      <use x="261.345703" xlink:href="#DejaVuSans-28"/>
      <use x="300.359375" xlink:href="#DejaVuSans-39"/>
      <use x="363.982422" xlink:href="#DejaVuSans-35"/>
      <use x="427.605469" xlink:href="#DejaVuSans-74"/>
      <use x="466.814453" xlink:href="#DejaVuSans-68"/>
      <use x="530.193359" xlink:href="#DejaVuSans-20"/>
      <use x="561.980469" xlink:href="#DejaVuSans-70"/>
      <use x="625.457031" xlink:href="#DejaVuSans-65"/>
      <use x="686.980469" xlink:href="#DejaVuSans-72"/>
      <use x="728.0625" xlink:href="#DejaVuSans-63"/>
      <use x="783.042969" xlink:href="#DejaVuSans-65"/>
      <use x="844.566406" xlink:href="#DejaVuSans-6e"/>
      <use x="907.945312" xlink:href="#DejaVuSans-2e"/>
      <use x="939.732422" xlink:href="#DejaVuSans-29"/>
     </g>
    </g>
   </g>
  </g>
 </g>
 <defs>
  <clipPath id="p3437ae543c">
   <rect height="266.112" width="357.12" x="57.6" y="41.472"/>
  </clipPath>
 </defs>
</svg>
