<?xml version="1.0" encoding="utf-8" standalone="no"?>
<!DOCTYPE svg PUBLIC "-//W3C//DTD SVG 1.1//EN"
  "http://www.w3.org/Graphics/SVG/1.1/DTD/svg11.dtd">
<!-- Created with matplotlib (http://matplotlib.org/) -->
<svg height="345pt" version="1.1" viewBox="0 0 460 345" width="460pt" xmlns="http://www.w3.org/2000/svg" xmlns:xlink="http://www.w3.org/1999/xlink">
 <defs>
  <style type="text/css">
*{stroke-linecap:butt;stroke-linejoin:round;}
  </style>
 </defs>
 <g id="figure_1">
  <g id="patch_1">
   <path d="M 0 345.6 
L 460.8 345.6 
L 460.8 0 
L 0 0 
z
" style="fill:#ffffff;"/>
  </g>
  <g id="axes_1">
   <g id="patch_2">
    <path d="M 57.6 307.584 
L 414.72 307.584 
L 414.72 41.472 
L 57.6 41.472 
z
" style="fill:#ffffff;"/>
   </g>
   <g id="PolyCollection_1">
    <path clip-path="url(#pab646704be)" d="M 73.832727 106.601733 
L 73.832727 110.821194 
L 75.48072 93.165747 
L 77.128713 94.547833 
L 78.776705 106.260246 
L 80.424698 119.095351 
L 82.07269 129.491869 
L 83.720683 135.226146 
L 85.368676 138.865446 
L 87.016668 148.385691 
L 88.664661 169.625516 
L 90.312653 194.981812 
L 91.960646 214.278885 
L 93.608639 224.255507 
L 95.256631 224.368658 
L 96.904624 217.285774 
L 98.552617 207.054907 
L 100.200609 195.522838 
L 101.848602 179.101674 
L 103.496594 153.050735 
L 105.144587 126.847624 
L 106.79258 110.342482 
L 108.440572 98.570361 
L 110.088565 88.546134 
L 111.736557 79.07173 
L 113.38455 69.627786 
L 115.032543 61.260983 
L 116.680535 56.599308 
L 118.328528 63.862461 
L 119.976521 88.242965 
L 121.624513 119.252438 
L 123.272506 151.009922 
L 124.920498 181.800203 
L 126.568491 210.507389 
L 128.216484 236.492813 
L 129.864476 259.095351 
L 131.512469 277.750752 
L 133.160461 290.906347 
L 134.808454 294.849873 
L 136.456447 282.717397 
L 138.104439 250.784736 
L 139.752432 208.433274 
L 141.400425 175.205347 
L 143.048417 156.138478 
L 144.69641 147.350053 
L 146.344402 146.988972 
L 147.992395 151.865133 
L 149.640388 157.416947 
L 151.28838 157.363981 
L 152.936373 145.00108 
L 154.584365 120.184882 
L 156.232358 103.183175 
L 157.880351 101.737383 
L 159.528343 104.100911 
L 161.176336 105.723174 
L 162.824329 103.772668 
L 164.472321 98.920321 
L 166.120314 96.207293 
L 167.768306 103.233497 
L 169.416299 126.094832 
L 171.064292 154.240394 
L 172.712284 177.799526 
L 174.360277 195.78756 
L 176.008269 209.306272 
L 177.656262 221.525404 
L 179.304255 233.974652 
L 180.952247 244.981364 
L 182.60024 249.735155 
L 184.248233 240.685757 
L 185.896225 214.370167 
L 187.544218 178.078441 
L 189.19221 148.985673 
L 190.840203 127.426373 
L 192.488196 111.864667 
L 194.136188 102.532058 
L 195.784181 98.398656 
L 197.432174 96.493782 
L 199.080166 91.333793 
L 200.728159 79.549032 
L 202.376151 69.495497 
L 204.024144 77.583886 
L 205.672137 100.365077 
L 207.320129 128.095579 
L 208.968122 156.000808 
L 210.616114 180.896725 
L 212.264107 202.203578 
L 213.9121 222.176053 
L 215.560092 243.089191 
L 217.208085 262.17236 
L 218.856078 274.849108 
L 220.50407 276.511103 
L 222.152063 261.352325 
L 223.800055 229.928583 
L 225.448048 190.895344 
L 227.096041 160.112453 
L 228.744033 139.468422 
L 230.392026 128.23012 
L 232.040018 125.418341 
L 233.688011 127.717261 
L 235.336004 130.169206 
L 236.983996 126.719882 
L 238.631989 112.228867 
L 240.279982 93.000961 
L 241.927974 89.148384 
L 243.575967 101.525129 
L 245.223959 117.603263 
L 246.871952 132.332856 
L 248.519945 143.113603 
L 250.167937 150.034328 
L 251.81593 158.931201 
L 253.463922 177.396295 
L 255.111915 201.899661 
L 256.759908 222.115847 
L 258.4079 233.105883 
L 260.055893 232.625002 
L 261.703886 222.258404 
L 263.351878 205.416276 
L 264.999871 186.283775 
L 266.647863 164.486553 
L 268.295856 138.958248 
L 269.943849 116.899635 
L 271.591841 103.797982 
L 273.239834 95.575884 
L 274.887826 88.373338 
L 276.535819 79.802653 
L 278.183812 69.590601 
L 279.831804 61.549974 
L 281.479797 61.661526 
L 283.12779 77.880315 
L 284.775782 106.748946 
L 286.423775 137.915655 
L 288.071767 167.780117 
L 289.71976 195.440231 
L 291.367753 221.333154 
L 293.015745 245.197425 
L 294.663738 265.825871 
L 296.311731 281.914418 
L 297.959723 290.728566 
L 299.607716 286.597773 
L 301.255708 262.782439 
L 302.903701 224.443299 
L 304.551694 184.890023 
L 306.199686 159.95386 
L 307.847679 145.920426 
L 309.495671 141.356795 
L 311.143664 143.691535 
L 312.791657 148.945555 
L 314.439649 151.816714 
L 316.087642 145.16772 
L 317.735635 125.126341 
L 319.383627 103.301711 
L 321.03162 99.017377 
L 322.679612 104.031585 
L 324.327605 109.670998 
L 325.975598 112.539841 
L 327.62359 111.361328 
L 329.271583 108.832738 
L 330.919575 112.862602 
L 332.567568 131.384914 
L 334.215561 158.803333 
L 335.863553 182.876665 
L 337.511546 200.0279 
L 339.159539 210.534054 
L 340.807531 217.177347 
L 342.455524 223.497339 
L 344.103516 229.820559 
L 345.751509 231.822311 
L 347.399502 222.331323 
L 349.047494 195.55267 
L 350.695487 160.815865 
L 352.343479 135.809602 
L 353.991472 116.6884 
L 355.639465 101.922053 
L 357.287457 91.495523 
L 358.93545 84.789893 
L 360.583443 79.830576 
L 362.231435 72.451838 
L 363.879428 62.723219 
L 365.52742 62.89703 
L 367.175413 82.2321 
L 368.823406 110.647211 
L 370.471398 142.297659 
L 372.119391 173.351778 
L 373.767383 201.322101 
L 375.415376 225.848753 
L 377.063369 247.950938 
L 378.711361 267.820443 
L 380.359354 283.12766 
L 382.007347 290.551439 
L 383.655339 284.186448 
L 385.303332 257.817753 
L 386.951324 217.546958 
L 388.599317 180.041267 
L 390.24731 157.227605 
L 391.895302 144.502445 
L 393.543295 140.950681 
L 395.191287 143.835235 
L 396.83928 148.952522 
L 398.487273 150.929816 
L 398.487273 147.992774 
L 398.487273 147.992774 
L 396.83928 147.12468 
L 395.191287 141.915017 
L 393.543295 138.473516 
L 391.895302 141.047622 
L 390.24731 153.399766 
L 388.599317 177.476392 
L 386.951324 212.294487 
L 385.303332 254.57664 
L 383.655339 280.146901 
L 382.007347 283.779714 
L 380.359354 276.518591 
L 378.711361 262.841715 
L 377.063369 244.869942 
L 375.415376 223.844998 
L 373.767383 199.237858 
L 372.119391 170.850965 
L 370.471398 139.569455 
L 368.823406 108.067076 
L 367.175413 78.9647 
L 365.52742 60.358001 
L 363.879428 59.55496 
L 362.231435 69.750101 
L 360.583443 77.585311 
L 358.93545 82.76565 
L 357.287457 89.416946 
L 355.639465 99.271775 
L 353.991472 113.318401 
L 352.343479 132.825838 
L 350.695487 158.081197 
L 349.047494 189.548287 
L 347.399502 218.4021 
L 345.751509 230.022489 
L 344.103516 228.09499 
L 342.455524 221.757969 
L 340.807531 215.214794 
L 339.159539 208.227595 
L 337.511546 197.772801 
L 335.863553 180.938748 
L 334.215561 156.617265 
L 332.567568 128.919287 
L 330.919575 111.214952 
L 329.271583 106.410481 
L 327.62359 108.182448 
L 325.975598 109.742019 
L 324.327605 107.696132 
L 322.679612 101.386802 
L 321.03162 95.335167 
L 319.383627 101.061222 
L 317.735635 120.296806 
L 316.087642 140.477271 
L 314.439649 149.087349 
L 312.791657 147.149527 
L 311.143664 141.773404 
L 309.495671 138.737698 
L 307.847679 142.260659 
L 306.199686 156.289747 
L 304.551694 182.523312 
L 302.903701 219.095038 
L 301.255708 260.073434 
L 299.607716 281.941499 
L 297.959723 283.769334 
L 296.311731 275.449863 
L 294.663738 261.025279 
L 293.015745 242.12297 
L 291.367753 219.363895 
L 289.71976 193.400868 
L 288.071767 165.204999 
L 286.423775 135.157359 
L 284.775782 104.023066 
L 283.12779 75.015614 
L 281.479797 59.09407 
L 279.831804 58.827836 
L 278.183812 66.87109 
L 276.535819 77.190535 
L 274.887826 86.373007 
L 273.239834 93.36399 
L 271.591841 100.659804 
L 269.943849 114.197728 
L 268.295856 136.576093 
L 266.647863 162.176362 
L 264.999871 183.594422 
L 263.351878 201.91003 
L 261.703886 218.565867 
L 260.055893 230.290766 
L 258.4079 231.46941 
L 256.759908 220.460146 
L 255.111915 199.946512 
L 253.463922 175.520461 
L 251.81593 156.886245 
L 250.167937 146.935614 
L 248.519945 139.809248 
L 246.871952 129.933072 
L 245.223959 115.763459 
L 243.575967 97.932246 
L 241.927974 85.89101 
L 240.279982 90.238556 
L 238.631989 107.741691 
L 236.983996 123.117235 
L 235.336004 128.085088 
L 233.688011 125.984431 
L 232.040018 123.061516 
L 230.392026 124.7962 
L 228.744033 135.627619 
L 227.096041 157.215229 
L 225.448048 187.618599 
L 223.800055 224.738156 
L 222.152063 259.07934 
L 220.50407 272.73329 
L 218.856078 269.910078 
L 217.208085 257.919934 
L 215.560092 240.362612 
L 213.9121 220.573926 
L 212.264107 200.363142 
L 210.616114 178.749829 
L 208.968122 153.532387 
L 207.320129 125.694513 
L 205.672137 97.374569 
L 204.024144 74.378425 
L 202.376151 66.949979 
L 200.728159 76.258671 
L 199.080166 88.752483 
L 197.432174 94.593454 
L 195.784181 96.556421 
L 194.136188 100.166069 
L 192.488196 108.738192 
L 190.840203 123.817957 
L 189.19221 146.211045 
L 187.544218 174.66858 
L 185.896225 208.417754 
L 184.248233 237.886959 
L 182.60024 248.079382 
L 180.952247 243.001538 
L 179.304255 232.312868 
L 177.656262 219.932603 
L 176.008269 207.384898 
L 174.360277 193.534177 
L 172.712284 175.710554 
L 171.064292 152.074693 
L 169.416299 123.332558 
L 167.768306 101.328494 
L 166.120314 94.049383 
L 164.472321 96.216781 
L 162.824329 100.830804 
L 161.176336 103.42211 
L 159.528343 102.231384 
L 157.880351 98.118121 
L 156.232358 100.634139 
L 154.584365 116.414565 
L 152.936373 139.548075 
L 151.28838 153.885835 
L 149.640388 155.350591 
L 147.992395 150.131659 
L 146.344402 144.953923 
L 144.69641 144.277362 
L 143.048417 152.227517 
L 141.400425 172.185183 
L 139.752432 204.015818 
L 138.104439 246.575967 
L 136.456447 279.289181 
L 134.808454 287.770626 
L 133.160461 283.30405 
L 131.512469 271.588977 
L 129.864476 254.956948 
L 128.216484 233.88284 
L 126.568491 208.409417 
L 124.920498 179.384693 
L 123.272506 148.16234 
L 121.624513 116.463831 
L 119.976521 85.220405 
L 118.328528 61.129076 
L 116.680535 53.568 
L 115.032543 58.422659 
L 113.38455 66.967417 
L 111.736557 76.638702 
L 110.088565 86.563314 
L 108.440572 96.054946 
L 106.79258 107.165285 
L 105.144587 124.413868 
L 103.496594 149.592204 
L 101.848602 175.83975 
L 100.200609 192.887742 
L 98.552617 204.22027 
L 96.904624 214.138421 
L 95.256631 221.692462 
L 93.608639 222.335579 
L 91.960646 212.589982 
L 90.312653 193.168164 
L 88.664661 167.674514 
L 87.016668 146.592406 
L 85.368676 136.126098 
L 83.720683 131.806999 
L 82.07269 126.570934 
L 80.424698 117.190598 
L 78.776705 103.522127 
L 77.128713 90.666417 
L 75.48072 91.094087 
L 73.832727 106.601733 
z
" style="fill:#008000;fill-opacity:0.4;"/>
   </g>
   <g id="matplotlib.axis_1">
    <g id="xtick_1">
     <g id="line2d_1">
      <defs>
       <path d="M 0 0 
L 0 3.5 
" id="m52c4282274" style="stroke:#000000;stroke-width:0.8;"/>
      </defs>
      <g>
       <use style="stroke:#000000;stroke-width:0.8;" x="73.832727" xlink:href="#m52c4282274" y="307.584"/>
      </g>
     </g>
     <g id="text_1">
      <!-- 0.0 -->
      <defs>
       <path d="M 31.78125 66.40625 
Q 24.171875 66.40625 20.328125 58.90625 
Q 16.5 51.421875 16.5 36.375 
Q 16.5 21.390625 20.328125 13.890625 
Q 24.171875 6.390625 31.78125 6.390625 
Q 39.453125 6.390625 43.28125 13.890625 
Q 47.125 21.390625 47.125 36.375 
Q 47.125 51.421875 43.28125 58.90625 
Q 39.453125 66.40625 31.78125 66.40625 
M 31.78125 74.21875 
Q 44.046875 74.21875 50.515625 64.515625 
Q 56.984375 54.828125 56.984375 36.375 
Q 56.984375 17.96875 50.515625 8.265625 
Q 44.046875 -1.421875 31.78125 -1.421875 
Q 19.53125 -1.421875 13.0625 8.265625 
Q 6.59375 17.96875 6.59375 36.375 
Q 6.59375 54.828125 13.0625 64.515625 
Q 19.53125 74.21875 31.78125 74.21875 
" id="DejaVuSans-30"/>
       <path d="M 10.6875 12.40625 
L 21 12.40625 
L 21 0 
L 10.6875 0 
z
" id="DejaVuSans-2e"/>
      </defs>
      <g transform="translate(65.881165 322.182437)scale(0.1 -0.1)">
       <use xlink:href="#DejaVuSans-30"/>
       <use x="63.623047" xlink:href="#DejaVuSans-2e"/>
       <use x="95.410156" xlink:href="#DejaVuSans-30"/>
      </g>
     </g>
    </g>
    <g id="xtick_2">
     <g id="line2d_2">
      <g>
       <use style="stroke:#000000;stroke-width:0.8;" x="138.763636" xlink:href="#m52c4282274" y="307.584"/>
      </g>
     </g>
     <g id="text_2">
      <!-- 0.2 -->
      <defs>
       <path d="M 19.1875 8.296875 
L 53.609375 8.296875 
L 53.609375 0 
L 7.328125 0 
L 7.328125 8.296875 
Q 12.9375 14.109375 22.625 23.890625 
Q 32.328125 33.6875 34.8125 36.53125 
Q 39.546875 41.84375 41.421875 45.53125 
Q 43.3125 49.21875 43.3125 52.78125 
Q 43.3125 58.59375 39.234375 62.25 
Q 35.15625 65.921875 28.609375 65.921875 
Q 23.96875 65.921875 18.8125 64.3125 
Q 13.671875 62.703125 7.8125 59.421875 
L 7.8125 69.390625 
Q 13.765625 71.78125 18.9375 73 
Q 24.125 74.21875 28.421875 74.21875 
Q 39.75 74.21875 46.484375 68.546875 
Q 53.21875 62.890625 53.21875 53.421875 
Q 53.21875 48.921875 51.53125 44.890625 
Q 49.859375 40.875 45.40625 35.40625 
Q 44.1875 33.984375 37.640625 27.21875 
Q 31.109375 20.453125 19.1875 8.296875 
" id="DejaVuSans-32"/>
      </defs>
      <g transform="translate(130.812074 322.182437)scale(0.1 -0.1)">
       <use xlink:href="#DejaVuSans-30"/>
       <use x="63.623047" xlink:href="#DejaVuSans-2e"/>
       <use x="95.410156" xlink:href="#DejaVuSans-32"/>
      </g>
     </g>
    </g>
    <g id="xtick_3">
     <g id="line2d_3">
      <g>
       <use style="stroke:#000000;stroke-width:0.8;" x="203.694545" xlink:href="#m52c4282274" y="307.584"/>
      </g>
     </g>
     <g id="text_3">
      <!-- 0.4 -->
      <defs>
       <path d="M 37.796875 64.3125 
L 12.890625 25.390625 
L 37.796875 25.390625 
z
M 35.203125 72.90625 
L 47.609375 72.90625 
L 47.609375 25.390625 
L 58.015625 25.390625 
L 58.015625 17.1875 
L 47.609375 17.1875 
L 47.609375 0 
L 37.796875 0 
L 37.796875 17.1875 
L 4.890625 17.1875 
L 4.890625 26.703125 
z
" id="DejaVuSans-34"/>
      </defs>
      <g transform="translate(195.742983 322.182437)scale(0.1 -0.1)">
       <use xlink:href="#DejaVuSans-30"/>
       <use x="63.623047" xlink:href="#DejaVuSans-2e"/>
       <use x="95.410156" xlink:href="#DejaVuSans-34"/>
      </g>
     </g>
    </g>
    <g id="xtick_4">
     <g id="line2d_4">
      <g>
       <use style="stroke:#000000;stroke-width:0.8;" x="268.625455" xlink:href="#m52c4282274" y="307.584"/>
      </g>
     </g>
     <g id="text_4">
      <!-- 0.6 -->
      <defs>
       <path d="M 33.015625 40.375 
Q 26.375 40.375 22.484375 35.828125 
Q 18.609375 31.296875 18.609375 23.390625 
Q 18.609375 15.53125 22.484375 10.953125 
Q 26.375 6.390625 33.015625 6.390625 
Q 39.65625 6.390625 43.53125 10.953125 
Q 47.40625 15.53125 47.40625 23.390625 
Q 47.40625 31.296875 43.53125 35.828125 
Q 39.65625 40.375 33.015625 40.375 
M 52.59375 71.296875 
L 52.59375 62.3125 
Q 48.875 64.0625 45.09375 64.984375 
Q 41.3125 65.921875 37.59375 65.921875 
Q 27.828125 65.921875 22.671875 59.328125 
Q 17.53125 52.734375 16.796875 39.40625 
Q 19.671875 43.65625 24.015625 45.921875 
Q 28.375 48.1875 33.59375 48.1875 
Q 44.578125 48.1875 50.953125 41.515625 
Q 57.328125 34.859375 57.328125 23.390625 
Q 57.328125 12.15625 50.6875 5.359375 
Q 44.046875 -1.421875 33.015625 -1.421875 
Q 20.359375 -1.421875 13.671875 8.265625 
Q 6.984375 17.96875 6.984375 36.375 
Q 6.984375 53.65625 15.1875 63.9375 
Q 23.390625 74.21875 37.203125 74.21875 
Q 40.921875 74.21875 44.703125 73.484375 
Q 48.484375 72.75 52.59375 71.296875 
" id="DejaVuSans-36"/>
      </defs>
      <g transform="translate(260.673892 322.182437)scale(0.1 -0.1)">
       <use xlink:href="#DejaVuSans-30"/>
       <use x="63.623047" xlink:href="#DejaVuSans-2e"/>
       <use x="95.410156" xlink:href="#DejaVuSans-36"/>
      </g>
     </g>
    </g>
    <g id="xtick_5">
     <g id="line2d_5">
      <g>
       <use style="stroke:#000000;stroke-width:0.8;" x="333.556364" xlink:href="#m52c4282274" y="307.584"/>
      </g>
     </g>
     <g id="text_5">
      <!-- 0.8 -->
      <defs>
       <path d="M 31.78125 34.625 
Q 24.75 34.625 20.71875 30.859375 
Q 16.703125 27.09375 16.703125 20.515625 
Q 16.703125 13.921875 20.71875 10.15625 
Q 24.75 6.390625 31.78125 6.390625 
Q 38.8125 6.390625 42.859375 10.171875 
Q 46.921875 13.96875 46.921875 20.515625 
Q 46.921875 27.09375 42.890625 30.859375 
Q 38.875 34.625 31.78125 34.625 
M 21.921875 38.8125 
Q 15.578125 40.375 12.03125 44.71875 
Q 8.5 49.078125 8.5 55.328125 
Q 8.5 64.0625 14.71875 69.140625 
Q 20.953125 74.21875 31.78125 74.21875 
Q 42.671875 74.21875 48.875 69.140625 
Q 55.078125 64.0625 55.078125 55.328125 
Q 55.078125 49.078125 51.53125 44.71875 
Q 48 40.375 41.703125 38.8125 
Q 48.828125 37.15625 52.796875 32.3125 
Q 56.78125 27.484375 56.78125 20.515625 
Q 56.78125 9.90625 50.3125 4.234375 
Q 43.84375 -1.421875 31.78125 -1.421875 
Q 19.734375 -1.421875 13.25 4.234375 
Q 6.78125 9.90625 6.78125 20.515625 
Q 6.78125 27.484375 10.78125 32.3125 
Q 14.796875 37.15625 21.921875 38.8125 
M 18.3125 54.390625 
Q 18.3125 48.734375 21.84375 45.5625 
Q 25.390625 42.390625 31.78125 42.390625 
Q 38.140625 42.390625 41.71875 45.5625 
Q 45.3125 48.734375 45.3125 54.390625 
Q 45.3125 60.0625 41.71875 63.234375 
Q 38.140625 66.40625 31.78125 66.40625 
Q 25.390625 66.40625 21.84375 63.234375 
Q 18.3125 60.0625 18.3125 54.390625 
" id="DejaVuSans-38"/>
      </defs>
      <g transform="translate(325.604801 322.182437)scale(0.1 -0.1)">
       <use xlink:href="#DejaVuSans-30"/>
       <use x="63.623047" xlink:href="#DejaVuSans-2e"/>
       <use x="95.410156" xlink:href="#DejaVuSans-38"/>
      </g>
     </g>
    </g>
    <g id="xtick_6">
     <g id="line2d_6">
      <g>
       <use style="stroke:#000000;stroke-width:0.8;" x="398.487273" xlink:href="#m52c4282274" y="307.584"/>
      </g>
     </g>
     <g id="text_6">
      <!-- 1.0 -->
      <defs>
       <path d="M 12.40625 8.296875 
L 28.515625 8.296875 
L 28.515625 63.921875 
L 10.984375 60.40625 
L 10.984375 69.390625 
L 28.421875 72.90625 
L 38.28125 72.90625 
L 38.28125 8.296875 
L 54.390625 8.296875 
L 54.390625 0 
L 12.40625 0 
z
" id="DejaVuSans-31"/>
      </defs>
      <g transform="translate(390.53571 322.182437)scale(0.1 -0.1)">
       <use xlink:href="#DejaVuSans-31"/>
       <use x="63.623047" xlink:href="#DejaVuSans-2e"/>
       <use x="95.410156" xlink:href="#DejaVuSans-30"/>
      </g>
     </g>
    </g>
   </g>
   <g id="matplotlib.axis_2">
    <g id="ytick_1">
     <g id="line2d_7">
      <defs>
       <path d="M 0 0 
L -3.5 0 
" id="ma24a7fe8d6" style="stroke:#000000;stroke-width:0.8;"/>
      </defs>
      <g>
       <use style="stroke:#000000;stroke-width:0.8;" x="57.6" xlink:href="#ma24a7fe8d6" y="286.299314"/>
      </g>
     </g>
     <g id="text_7">
      <!-- 0.20 -->
      <g transform="translate(28.334375 290.098533)scale(0.1 -0.1)">
       <use xlink:href="#DejaVuSans-30"/>
       <use x="63.623047" xlink:href="#DejaVuSans-2e"/>
       <use x="95.410156" xlink:href="#DejaVuSans-32"/>
       <use x="159.033203" xlink:href="#DejaVuSans-30"/>
      </g>
     </g>
    </g>
    <g id="ytick_2">
     <g id="line2d_8">
      <g>
       <use style="stroke:#000000;stroke-width:0.8;" x="57.6" xlink:href="#ma24a7fe8d6" y="254.668726"/>
      </g>
     </g>
     <g id="text_8">
      <!-- 0.25 -->
      <defs>
       <path d="M 10.796875 72.90625 
L 49.515625 72.90625 
L 49.515625 64.59375 
L 19.828125 64.59375 
L 19.828125 46.734375 
Q 21.96875 47.46875 24.109375 47.828125 
Q 26.265625 48.1875 28.421875 48.1875 
Q 40.625 48.1875 47.75 41.5 
Q 54.890625 34.8125 54.890625 23.390625 
Q 54.890625 11.625 47.5625 5.09375 
Q 40.234375 -1.421875 26.90625 -1.421875 
Q 22.3125 -1.421875 17.546875 -0.640625 
Q 12.796875 0.140625 7.71875 1.703125 
L 7.71875 11.625 
Q 12.109375 9.234375 16.796875 8.0625 
Q 21.484375 6.890625 26.703125 6.890625 
Q 35.15625 6.890625 40.078125 11.328125 
Q 45.015625 15.765625 45.015625 23.390625 
Q 45.015625 31 40.078125 35.4375 
Q 35.15625 39.890625 26.703125 39.890625 
Q 22.75 39.890625 18.8125 39.015625 
Q 14.890625 38.140625 10.796875 36.28125 
z
" id="DejaVuSans-35"/>
      </defs>
      <g transform="translate(28.334375 258.467945)scale(0.1 -0.1)">
       <use xlink:href="#DejaVuSans-30"/>
       <use x="63.623047" xlink:href="#DejaVuSans-2e"/>
       <use x="95.410156" xlink:href="#DejaVuSans-32"/>
       <use x="159.033203" xlink:href="#DejaVuSans-35"/>
      </g>
     </g>
    </g>
    <g id="ytick_3">
     <g id="line2d_9">
      <g>
       <use style="stroke:#000000;stroke-width:0.8;" x="57.6" xlink:href="#ma24a7fe8d6" y="223.038138"/>
      </g>
     </g>
     <g id="text_9">
      <!-- 0.30 -->
      <defs>
       <path d="M 40.578125 39.3125 
Q 47.65625 37.796875 51.625 33 
Q 55.609375 28.21875 55.609375 21.1875 
Q 55.609375 10.40625 48.1875 4.484375 
Q 40.765625 -1.421875 27.09375 -1.421875 
Q 22.515625 -1.421875 17.65625 -0.515625 
Q 12.796875 0.390625 7.625 2.203125 
L 7.625 11.71875 
Q 11.71875 9.328125 16.59375 8.109375 
Q 21.484375 6.890625 26.8125 6.890625 
Q 36.078125 6.890625 40.9375 10.546875 
Q 45.796875 14.203125 45.796875 21.1875 
Q 45.796875 27.640625 41.28125 31.265625 
Q 36.765625 34.90625 28.71875 34.90625 
L 20.21875 34.90625 
L 20.21875 43.015625 
L 29.109375 43.015625 
Q 36.375 43.015625 40.234375 45.921875 
Q 44.09375 48.828125 44.09375 54.296875 
Q 44.09375 59.90625 40.109375 62.90625 
Q 36.140625 65.921875 28.71875 65.921875 
Q 24.65625 65.921875 20.015625 65.03125 
Q 15.375 64.15625 9.8125 62.3125 
L 9.8125 71.09375 
Q 15.4375 72.65625 20.34375 73.4375 
Q 25.25 74.21875 29.59375 74.21875 
Q 40.828125 74.21875 47.359375 69.109375 
Q 53.90625 64.015625 53.90625 55.328125 
Q 53.90625 49.265625 50.4375 45.09375 
Q 46.96875 40.921875 40.578125 39.3125 
" id="DejaVuSans-33"/>
      </defs>
      <g transform="translate(28.334375 226.837357)scale(0.1 -0.1)">
       <use xlink:href="#DejaVuSans-30"/>
       <use x="63.623047" xlink:href="#DejaVuSans-2e"/>
       <use x="95.410156" xlink:href="#DejaVuSans-33"/>
       <use x="159.033203" xlink:href="#DejaVuSans-30"/>
      </g>
     </g>
    </g>
    <g id="ytick_4">
     <g id="line2d_10">
      <g>
       <use style="stroke:#000000;stroke-width:0.8;" x="57.6" xlink:href="#ma24a7fe8d6" y="191.40755"/>
      </g>
     </g>
     <g id="text_10">
      <!-- 0.35 -->
      <g transform="translate(28.334375 195.206769)scale(0.1 -0.1)">
       <use xlink:href="#DejaVuSans-30"/>
       <use x="63.623047" xlink:href="#DejaVuSans-2e"/>
       <use x="95.410156" xlink:href="#DejaVuSans-33"/>
       <use x="159.033203" xlink:href="#DejaVuSans-35"/>
      </g>
     </g>
    </g>
    <g id="ytick_5">
     <g id="line2d_11">
      <g>
       <use style="stroke:#000000;stroke-width:0.8;" x="57.6" xlink:href="#ma24a7fe8d6" y="159.776962"/>
      </g>
     </g>
     <g id="text_11">
      <!-- 0.40 -->
      <g transform="translate(28.334375 163.576181)scale(0.1 -0.1)">
       <use xlink:href="#DejaVuSans-30"/>
       <use x="63.623047" xlink:href="#DejaVuSans-2e"/>
       <use x="95.410156" xlink:href="#DejaVuSans-34"/>
       <use x="159.033203" xlink:href="#DejaVuSans-30"/>
      </g>
     </g>
    </g>
    <g id="ytick_6">
     <g id="line2d_12">
      <g>
       <use style="stroke:#000000;stroke-width:0.8;" x="57.6" xlink:href="#ma24a7fe8d6" y="128.146374"/>
      </g>
     </g>
     <g id="text_12">
      <!-- 0.45 -->
      <g transform="translate(28.334375 131.945593)scale(0.1 -0.1)">
       <use xlink:href="#DejaVuSans-30"/>
       <use x="63.623047" xlink:href="#DejaVuSans-2e"/>
       <use x="95.410156" xlink:href="#DejaVuSans-34"/>
       <use x="159.033203" xlink:href="#DejaVuSans-35"/>
      </g>
     </g>
    </g>
    <g id="ytick_7">
     <g id="line2d_13">
      <g>
       <use style="stroke:#000000;stroke-width:0.8;" x="57.6" xlink:href="#ma24a7fe8d6" y="96.515786"/>
      </g>
     </g>
     <g id="text_13">
      <!-- 0.50 -->
      <g transform="translate(28.334375 100.315005)scale(0.1 -0.1)">
       <use xlink:href="#DejaVuSans-30"/>
       <use x="63.623047" xlink:href="#DejaVuSans-2e"/>
       <use x="95.410156" xlink:href="#DejaVuSans-35"/>
       <use x="159.033203" xlink:href="#DejaVuSans-30"/>
      </g>
     </g>
    </g>
    <g id="ytick_8">
     <g id="line2d_14">
      <g>
       <use style="stroke:#000000;stroke-width:0.8;" x="57.6" xlink:href="#ma24a7fe8d6" y="64.885198"/>
      </g>
     </g>
     <g id="text_14">
      <!-- 0.55 -->
      <g transform="translate(28.334375 68.684417)scale(0.1 -0.1)">
       <use xlink:href="#DejaVuSans-30"/>
       <use x="63.623047" xlink:href="#DejaVuSans-2e"/>
       <use x="95.410156" xlink:href="#DejaVuSans-35"/>
       <use x="159.033203" xlink:href="#DejaVuSans-35"/>
      </g>
     </g>
    </g>
   </g>
   <g id="line2d_15">
    <path clip-path="url(#pab646704be)" d="M 73.832727 108.411418 
L 75.48072 94.411719 
L 77.128713 94.231425 
L 78.776705 104.685334 
L 80.424698 117.628571 
L 82.07269 127.696587 
L 83.720683 133.691216 
L 85.368676 138.924813 
L 87.016668 149.905056 
L 88.664661 169.829163 
L 90.312653 193.018812 
L 91.960646 211.742855 
L 93.608639 221.517972 
L 95.256631 221.609068 
L 96.904624 214.855305 
L 98.552617 204.989725 
L 100.200609 192.762605 
L 101.848602 174.798961 
L 105.144587 126.435792 
L 106.79258 108.832737 
L 108.440572 96.441771 
L 113.38455 66.371836 
L 115.032543 57.657609 
L 116.680535 53.799942 
L 118.328528 62.976609 
L 119.976521 86.866559 
L 126.568491 209.164962 
L 128.216484 235.382291 
L 129.864476 258.769948 
L 131.512469 278.496048 
L 133.160461 292.330635 
L 134.808454 295.488 
L 136.456447 280.781674 
L 138.104439 246.857236 
L 139.752432 206.699042 
L 141.400425 174.456718 
L 143.048417 154.724925 
L 144.69641 146.309923 
L 146.344402 146.289679 
L 149.640388 155.523281 
L 151.28838 153.409092 
L 152.936373 139.82502 
L 154.584365 118.988686 
L 156.232358 104.036907 
L 157.880351 100.307661 
L 159.528343 102.277614 
L 161.176336 103.706051 
L 162.824329 101.796197 
L 164.472321 97.741155 
L 166.120314 96.288679 
L 167.768306 104.84412 
L 169.416299 126.233356 
L 171.064292 152.489907 
L 172.712284 175.853525 
L 174.360277 193.99683 
L 176.008269 208.228064 
L 179.304255 233.455356 
L 180.952247 243.999096 
L 182.60024 247.400017 
L 184.248233 235.840935 
L 185.896225 208.593714 
L 187.544218 176.190707 
L 189.19221 147.575779 
L 190.840203 125.529892 
L 192.488196 110.255481 
L 194.136188 101.257211 
L 195.784181 97.095891 
L 197.432174 94.450309 
L 199.080166 88.223511 
L 200.728159 76.820052 
L 202.376151 69.419127 
L 204.024144 77.361567 
L 205.672137 99.188571 
L 208.968122 154.676214 
L 210.616114 179.463208 
L 213.9121 221.83238 
L 215.560092 242.771197 
L 217.208085 261.774854 
L 218.856078 274.494779 
L 220.50407 275.163449 
L 222.152063 258.039914 
L 223.800055 225.477489 
L 225.448048 189.237059 
L 227.096041 158.833738 
L 228.744033 137.948061 
L 230.392026 127.108891 
L 232.040018 124.586035 
L 233.688011 126.736283 
L 235.336004 128.268468 
L 236.983996 123.100663 
L 238.631989 108.786557 
L 240.279982 93.186351 
L 241.927974 89.810102 
L 243.575967 100.173547 
L 245.223959 116.145729 
L 246.871952 130.829281 
L 248.519945 141.367327 
L 250.167937 149.268648 
L 251.81593 159.913606 
L 253.463922 177.905085 
L 255.111915 200.313459 
L 256.759908 219.727681 
L 258.4079 230.393515 
L 260.055893 229.609077 
L 261.703886 218.885675 
L 263.351878 202.594657 
L 264.999871 183.683993 
L 266.647863 161.689348 
L 268.295856 137.237005 
L 269.943849 116.186849 
L 271.591841 102.255473 
L 273.239834 93.495065 
L 274.887826 85.900561 
L 276.535819 76.806134 
L 278.183812 66.609698 
L 279.831804 58.858939 
L 281.479797 60.341781 
L 283.12779 77.170519 
L 284.775782 105.336292 
L 288.071767 166.496564 
L 291.367753 220.263503 
L 293.015745 244.397642 
L 294.663738 265.822937 
L 296.311731 282.756688 
L 297.959723 291.501913 
L 299.607716 285.452247 
L 301.255708 259.541102 
L 304.551694 184.517143 
L 306.199686 158.65977 
L 307.847679 144.655643 
L 309.495671 140.484834 
L 311.143664 142.927981 
L 312.791657 147.705465 
L 314.439649 148.899203 
L 316.087642 140.38931 
L 319.383627 104.389905 
L 321.03162 98.644525 
L 322.679612 102.258636 
L 324.327605 107.864209 
L 325.975598 110.624926 
L 327.62359 109.782287 
L 329.271583 108.79478 
L 330.919575 114.528773 
L 332.567568 132.358936 
L 334.215561 157.374935 
L 335.863553 180.633539 
L 337.511546 197.7343 
L 339.159539 208.699993 
L 340.807531 216.187585 
L 342.455524 222.838865 
L 344.103516 228.576654 
L 345.751509 228.991647 
L 347.399502 216.408367 
L 349.047494 189.898139 
L 350.695487 159.871854 
L 352.343479 134.325726 
L 353.991472 114.662887 
L 355.639465 100.064106 
L 357.287457 89.747473 
L 358.93545 82.790009 
L 360.583443 76.932024 
L 363.879428 60.257011 
L 365.52742 62.56035 
L 367.175413 80.9567 
L 368.823406 109.475471 
L 372.119391 171.89211 
L 373.767383 199.779534 
L 375.415376 224.692418 
L 377.063369 247.491746 
L 378.711361 268.036445 
L 380.359354 284.005464 
L 382.007347 291.152712 
L 383.655339 282.651675 
L 385.303332 254.014606 
L 386.951324 214.590241 
L 388.599317 179.594158 
L 390.24731 155.75798 
L 391.895302 143.297426 
L 393.543295 140.136265 
L 395.191287 143.052605 
L 396.83928 147.619429 
L 398.487273 147.747217 
L 398.487273 147.747217 
" style="fill:none;stroke:#1f77b4;stroke-linecap:square;stroke-width:1.5;"/>
   </g>
   <g id="line2d_16">
    <path clip-path="url(#pab646704be)" d="M 73.832727 107.99272 
L 75.48072 92.123173 
L 77.128713 93.242915 
L 78.776705 105.098081 
L 80.424698 117.899235 
L 82.07269 127.527294 
L 83.720683 132.851728 
L 85.368676 137.035777 
L 87.016668 147.263775 
L 88.664661 168.508184 
L 90.312653 193.80422 
L 91.960646 213.1846 
L 93.608639 222.91916 
L 95.256631 222.45979 
L 96.904624 215.001914 
L 98.552617 205.081703 
L 100.200609 193.740998 
L 101.848602 176.719427 
L 105.144587 125.834464 
L 106.79258 109.271856 
L 108.440572 97.588322 
L 113.38455 68.013785 
L 115.032543 59.617948 
L 116.680535 54.860267 
L 118.328528 62.349047 
L 119.976521 86.891739 
L 126.568491 209.242451 
L 128.216484 235.267549 
L 129.864476 257.781817 
L 131.512469 276.209228 
L 133.160461 289.087843 
L 134.808454 293.053021 
L 136.456447 281.384342 
L 138.104439 247.914011 
L 139.752432 205.496165 
L 141.400425 173.961073 
L 143.048417 154.94119 
L 144.69641 146.274651 
L 146.344402 145.971634 
L 147.992395 150.831588 
L 149.640388 156.083573 
L 151.28838 154.862499 
L 152.936373 140.902406 
L 154.584365 117.833954 
L 156.232358 102.189588 
L 157.880351 100.509858 
L 159.528343 103.136383 
L 161.176336 104.22958 
L 162.824329 101.803387 
L 164.472321 97.157332 
L 166.120314 94.817605 
L 167.768306 102.206257 
L 169.416299 124.931795 
L 171.064292 152.999336 
L 172.712284 176.417629 
L 174.360277 194.212528 
L 176.008269 207.973944 
L 179.304255 232.965586 
L 180.952247 243.984011 
L 182.60024 248.802119 
L 184.248233 238.792016 
L 185.896225 209.819077 
L 187.544218 175.784026 
L 189.19221 147.939484 
L 190.840203 126.268539 
L 192.488196 110.783121 
L 194.136188 101.571595 
L 195.784181 97.470086 
L 197.432174 95.344566 
L 199.080166 89.694266 
L 200.728159 77.425513 
L 202.376151 68.008526 
L 204.024144 76.248619 
L 205.672137 99.113349 
L 208.968122 154.525628 
L 210.616114 179.450934 
L 213.9121 221.134802 
L 215.560092 241.981276 
L 217.208085 260.937545 
L 218.856078 273.559117 
L 220.50407 275.372798 
L 222.152063 259.946904 
L 223.800055 226.2283 
L 225.448048 188.814692 
L 227.096041 159.055252 
L 228.744033 138.242102 
L 230.392026 127.06315 
L 232.040018 124.400382 
L 233.688011 126.72674 
L 235.336004 128.855713 
L 236.983996 124.175529 
L 238.631989 109.058695 
L 240.279982 91.355983 
L 241.927974 87.989914 
L 243.575967 100.232462 
L 245.223959 116.46522 
L 246.871952 130.781091 
L 248.519945 140.828575 
L 250.167937 147.866973 
L 251.81593 157.639003 
L 253.463922 176.252417 
L 255.111915 200.677293 
L 256.759908 221.080567 
L 258.4079 231.986419 
L 260.055893 230.998994 
L 261.703886 219.542233 
L 263.351878 202.866637 
L 264.999871 184.460978 
L 266.647863 163.063928 
L 268.295856 137.662102 
L 269.943849 115.84124 
L 271.591841 102.73449 
L 273.239834 94.615504 
L 274.887826 87.240655 
L 276.535819 78.148171 
L 278.183812 67.959781 
L 279.831804 59.994109 
L 281.479797 60.21509 
L 283.12779 76.446108 
L 284.775782 105.441635 
L 288.071767 166.247014 
L 291.367753 220.128493 
L 293.015745 243.924391 
L 294.663738 264.451864 
L 296.311731 280.324053 
L 297.959723 289.020189 
L 299.607716 285.177357 
L 301.255708 261.14392 
L 302.903701 220.65926 
L 304.551694 183.738458 
L 306.199686 158.750448 
L 307.847679 144.778878 
L 309.495671 140.275871 
L 311.143664 142.630867 
L 312.791657 147.854284 
L 314.439649 149.937665 
L 316.087642 141.713347 
L 319.383627 102.225839 
L 321.03162 97.834837 
L 322.679612 102.930129 
L 324.327605 108.417102 
L 325.975598 110.689901 
L 327.62359 109.18352 
L 329.271583 107.278256 
L 330.919575 111.873417 
L 332.567568 130.224577 
L 334.215561 157.621752 
L 335.863553 181.575284 
L 337.511546 198.470515 
L 339.159539 208.878316 
L 342.455524 222.352844 
L 344.103516 228.700267 
L 345.751509 230.652473 
L 347.399502 219.465633 
L 349.047494 190.86011 
L 350.695487 159.292753 
L 352.343479 134.754505 
L 353.991472 115.577769 
L 355.639465 100.899891 
L 357.287457 90.496759 
L 358.93545 83.721339 
L 360.583443 78.466924 
L 362.231435 70.804512 
L 363.879428 60.794407 
L 365.52742 61.513416 
L 367.175413 80.771976 
L 368.823406 109.376871 
L 372.119391 171.847292 
L 373.767383 199.978472 
L 375.415376 224.633739 
L 377.063369 246.708045 
L 378.711361 266.427908 
L 380.359354 281.552027 
L 382.007347 288.866815 
L 383.655339 282.846227 
L 385.303332 255.719082 
L 386.951324 213.834631 
L 388.599317 178.921998 
L 390.24731 156.022555 
L 391.895302 143.375277 
L 393.543295 139.863865 
L 395.191287 142.781 
L 396.83928 147.856386 
L 398.487273 148.89666 
L 398.487273 148.89666 
" style="fill:none;stroke:#ff7f0e;stroke-linecap:square;stroke-width:1.5;"/>
   </g>
   <g id="line2d_17">
    <path clip-path="url(#pab646704be)" d="M 73.832727 110.821194 
L 75.48072 93.165747 
L 77.128713 94.547833 
L 78.776705 106.260246 
L 80.424698 119.095351 
L 82.07269 129.491869 
L 83.720683 135.226146 
L 85.368676 138.865446 
L 87.016668 148.385691 
L 88.664661 169.625516 
L 90.312653 194.981812 
L 91.960646 214.278885 
L 93.608639 224.255507 
L 95.256631 224.368658 
L 96.904624 217.285774 
L 98.552617 207.054907 
L 100.200609 195.522838 
L 101.848602 179.101674 
L 105.144587 126.847624 
L 106.79258 110.342482 
L 108.440572 98.570361 
L 111.736557 79.07173 
L 113.38455 69.627786 
L 115.032543 61.260983 
L 116.680535 56.599308 
L 118.328528 63.862461 
L 119.976521 88.242965 
L 126.568491 210.507389 
L 128.216484 236.492813 
L 129.864476 259.095351 
L 131.512469 277.750752 
L 133.160461 290.906347 
L 134.808454 294.849873 
L 136.456447 282.717397 
L 138.104439 250.784736 
L 139.752432 208.433274 
L 141.400425 175.205347 
L 143.048417 156.138478 
L 144.69641 147.350053 
L 146.344402 146.988972 
L 147.992395 151.865133 
L 149.640388 157.416947 
L 151.28838 157.363981 
L 152.936373 145.00108 
L 154.584365 120.184882 
L 156.232358 103.183175 
L 157.880351 101.737383 
L 159.528343 104.100911 
L 161.176336 105.723174 
L 162.824329 103.772668 
L 164.472321 98.920321 
L 166.120314 96.207293 
L 167.768306 103.233497 
L 169.416299 126.094832 
L 171.064292 154.240394 
L 172.712284 177.799526 
L 174.360277 195.78756 
L 176.008269 209.306272 
L 179.304255 233.974652 
L 180.952247 244.981364 
L 182.60024 249.735155 
L 184.248233 240.685757 
L 185.896225 214.370167 
L 187.544218 178.078441 
L 189.19221 148.985673 
L 190.840203 127.426373 
L 192.488196 111.864667 
L 194.136188 102.532058 
L 195.784181 98.398656 
L 197.432174 96.493782 
L 199.080166 91.333793 
L 200.728159 79.549032 
L 202.376151 69.495497 
L 204.024144 77.583886 
L 205.672137 100.365077 
L 208.968122 156.000808 
L 210.616114 180.896725 
L 213.9121 222.176053 
L 215.560092 243.089191 
L 217.208085 262.17236 
L 218.856078 274.849108 
L 220.50407 276.511103 
L 222.152063 261.352325 
L 223.800055 229.928583 
L 225.448048 190.895344 
L 227.096041 160.112453 
L 228.744033 139.468422 
L 230.392026 128.23012 
L 232.040018 125.418341 
L 235.336004 130.169206 
L 236.983996 126.719882 
L 238.631989 112.228867 
L 240.279982 93.000961 
L 241.927974 89.148384 
L 243.575967 101.525129 
L 245.223959 117.603263 
L 246.871952 132.332856 
L 248.519945 143.113603 
L 250.167937 150.034328 
L 251.81593 158.931201 
L 253.463922 177.396295 
L 255.111915 201.899661 
L 256.759908 222.115847 
L 258.4079 233.105883 
L 260.055893 232.625002 
L 261.703886 222.258404 
L 263.351878 205.416276 
L 264.999871 186.283775 
L 266.647863 164.486553 
L 268.295856 138.958248 
L 269.943849 116.899635 
L 271.591841 103.797982 
L 273.239834 95.575884 
L 274.887826 88.373338 
L 276.535819 79.802653 
L 278.183812 69.590601 
L 279.831804 61.549974 
L 281.479797 61.661526 
L 283.12779 77.880315 
L 284.775782 106.748946 
L 288.071767 167.780117 
L 291.367753 221.333154 
L 293.015745 245.197425 
L 294.663738 265.825871 
L 296.311731 281.914418 
L 297.959723 290.728566 
L 299.607716 286.597773 
L 301.255708 262.782439 
L 304.551694 184.890023 
L 306.199686 159.95386 
L 307.847679 145.920426 
L 309.495671 141.356795 
L 311.143664 143.691535 
L 312.791657 148.945555 
L 314.439649 151.816714 
L 316.087642 145.16772 
L 317.735635 125.126341 
L 319.383627 103.301711 
L 321.03162 99.017377 
L 322.679612 104.031585 
L 324.327605 109.670998 
L 325.975598 112.539841 
L 327.62359 111.361328 
L 329.271583 108.832738 
L 330.919575 112.862602 
L 332.567568 131.384914 
L 334.215561 158.803333 
L 335.863553 182.876665 
L 337.511546 200.0279 
L 339.159539 210.534054 
L 342.455524 223.497339 
L 344.103516 229.820559 
L 345.751509 231.822311 
L 347.399502 222.331323 
L 349.047494 195.55267 
L 350.695487 160.815865 
L 352.343479 135.809602 
L 353.991472 116.6884 
L 355.639465 101.922053 
L 357.287457 91.495523 
L 358.93545 84.789893 
L 360.583443 79.830576 
L 362.231435 72.451838 
L 363.879428 62.723219 
L 365.52742 62.89703 
L 367.175413 82.2321 
L 368.823406 110.647211 
L 372.119391 173.351778 
L 373.767383 201.322101 
L 375.415376 225.848753 
L 377.063369 247.950938 
L 378.711361 267.820443 
L 380.359354 283.12766 
L 382.007347 290.551439 
L 383.655339 284.186448 
L 385.303332 257.817753 
L 386.951324 217.546958 
L 388.599317 180.041267 
L 390.24731 157.227605 
L 391.895302 144.502445 
L 393.543295 140.950681 
L 395.191287 143.835235 
L 396.83928 148.952522 
L 398.487273 150.929816 
L 398.487273 150.929816 
" style="fill:none;stroke:#2ca02c;stroke-linecap:square;stroke-width:1.5;"/>
   </g>
   <g id="line2d_18">
    <path clip-path="url(#pab646704be)" d="M 73.832727 106.601733 
L 75.48072 91.094087 
L 77.128713 90.666417 
L 80.424698 117.190598 
L 82.07269 126.570934 
L 83.720683 131.806999 
L 85.368676 136.126098 
L 87.016668 146.592406 
L 88.664661 167.674514 
L 90.312653 193.168164 
L 91.960646 212.589982 
L 93.608639 222.335579 
L 95.256631 221.692462 
L 96.904624 214.138421 
L 98.552617 204.22027 
L 100.200609 192.887742 
L 101.848602 175.83975 
L 105.144587 124.413868 
L 106.79258 107.165285 
L 108.440572 96.054946 
L 115.032543 58.422659 
L 116.680535 53.568 
L 118.328528 61.129076 
L 119.976521 85.220405 
L 126.568491 208.409417 
L 128.216484 233.88284 
L 129.864476 254.956948 
L 131.512469 271.588977 
L 133.160461 283.30405 
L 134.808454 287.770626 
L 136.456447 279.289181 
L 138.104439 246.575967 
L 139.752432 204.015818 
L 141.400425 172.185183 
L 143.048417 152.227517 
L 144.69641 144.277362 
L 146.344402 144.953923 
L 149.640388 155.350591 
L 151.28838 153.885835 
L 152.936373 139.548075 
L 154.584365 116.414565 
L 156.232358 100.634139 
L 157.880351 98.118121 
L 159.528343 102.231384 
L 161.176336 103.42211 
L 162.824329 100.830804 
L 164.472321 96.216781 
L 166.120314 94.049383 
L 167.768306 101.328494 
L 169.416299 123.332558 
L 171.064292 152.074693 
L 172.712284 175.710554 
L 174.360277 193.534177 
L 176.008269 207.384898 
L 179.304255 232.312868 
L 180.952247 243.001538 
L 182.60024 248.079382 
L 184.248233 237.886959 
L 185.896225 208.417754 
L 187.544218 174.66858 
L 189.19221 146.211045 
L 190.840203 123.817957 
L 192.488196 108.738192 
L 194.136188 100.166069 
L 195.784181 96.556421 
L 197.432174 94.593454 
L 199.080166 88.752483 
L 200.728159 76.258671 
L 202.376151 66.949979 
L 204.024144 74.378425 
L 205.672137 97.374569 
L 208.968122 153.532387 
L 210.616114 178.749829 
L 213.9121 220.573926 
L 215.560092 240.362612 
L 217.208085 257.919934 
L 218.856078 269.910078 
L 220.50407 272.73329 
L 222.152063 259.07934 
L 223.800055 224.738156 
L 225.448048 187.618599 
L 227.096041 157.215229 
L 228.744033 135.627619 
L 230.392026 124.7962 
L 232.040018 123.061516 
L 233.688011 125.984431 
L 235.336004 128.085088 
L 236.983996 123.117235 
L 238.631989 107.741691 
L 240.279982 90.238556 
L 241.927974 85.89101 
L 243.575967 97.932246 
L 245.223959 115.763459 
L 246.871952 129.933072 
L 248.519945 139.809248 
L 250.167937 146.935614 
L 251.81593 156.886245 
L 253.463922 175.520461 
L 255.111915 199.946512 
L 256.759908 220.460146 
L 258.4079 231.46941 
L 260.055893 230.290766 
L 261.703886 218.565867 
L 263.351878 201.91003 
L 264.999871 183.594422 
L 266.647863 162.176362 
L 268.295856 136.576093 
L 269.943849 114.197728 
L 271.591841 100.659804 
L 274.887826 86.373007 
L 276.535819 77.190535 
L 278.183812 66.87109 
L 279.831804 58.827836 
L 281.479797 59.09407 
L 283.12779 75.015614 
L 284.775782 104.023066 
L 288.071767 165.204999 
L 289.71976 193.400868 
L 291.367753 219.363895 
L 293.015745 242.12297 
L 294.663738 261.025279 
L 296.311731 275.449863 
L 297.959723 283.769334 
L 299.607716 281.941499 
L 301.255708 260.073434 
L 302.903701 219.095038 
L 304.551694 182.523312 
L 306.199686 156.289747 
L 307.847679 142.260659 
L 309.495671 138.737698 
L 311.143664 141.773404 
L 312.791657 147.149527 
L 314.439649 149.087349 
L 316.087642 140.477271 
L 319.383627 101.061222 
L 321.03162 95.335167 
L 324.327605 107.696132 
L 325.975598 109.742019 
L 327.62359 108.182448 
L 329.271583 106.410481 
L 330.919575 111.214952 
L 332.567568 128.919287 
L 334.215561 156.617265 
L 335.863553 180.938748 
L 337.511546 197.772801 
L 339.159539 208.227595 
L 342.455524 221.757969 
L 344.103516 228.09499 
L 345.751509 230.022489 
L 347.399502 218.4021 
L 349.047494 189.548287 
L 350.695487 158.081197 
L 352.343479 132.825838 
L 353.991472 113.318401 
L 355.639465 99.271775 
L 357.287457 89.416946 
L 358.93545 82.76565 
L 360.583443 77.585311 
L 362.231435 69.750101 
L 363.879428 59.55496 
L 365.52742 60.358001 
L 367.175413 78.9647 
L 368.823406 108.067076 
L 372.119391 170.850965 
L 373.767383 199.237858 
L 375.415376 223.844998 
L 377.063369 244.869942 
L 378.711361 262.841715 
L 380.359354 276.518591 
L 382.007347 283.779714 
L 383.655339 280.146901 
L 385.303332 254.57664 
L 386.951324 212.294487 
L 388.599317 177.476392 
L 390.24731 153.399766 
L 391.895302 141.047622 
L 393.543295 138.473516 
L 395.191287 141.915017 
L 396.83928 147.12468 
L 398.487273 147.992774 
L 398.487273 147.992774 
" style="fill:none;stroke:#d62728;stroke-linecap:square;stroke-width:1.5;"/>
   </g>
   <g id="patch_3">
    <path d="M 57.6 307.584 
L 57.6 41.472 
" style="fill:none;stroke:#000000;stroke-linecap:square;stroke-linejoin:miter;stroke-width:0.8;"/>
   </g>
   <g id="patch_4">
    <path d="M 414.72 307.584 
L 414.72 41.472 
" style="fill:none;stroke:#000000;stroke-linecap:square;stroke-linejoin:miter;stroke-width:0.8;"/>
   </g>
   <g id="patch_5">
    <path d="M 57.6 307.584 
L 414.72 307.584 
" style="fill:none;stroke:#000000;stroke-linecap:square;stroke-linejoin:miter;stroke-width:0.8;"/>
   </g>
   <g id="patch_6">
    <path d="M 57.6 41.472 
L 414.72 41.472 
" style="fill:none;stroke:#000000;stroke-linecap:square;stroke-linejoin:miter;stroke-width:0.8;"/>
   </g>
   <g id="text_15">
    <!-- Plot of Test Data vs MCMC Uncertainty  -->
    <defs>
     <path d="M 19.671875 64.796875 
L 19.671875 37.40625 
L 32.078125 37.40625 
Q 38.96875 37.40625 42.71875 40.96875 
Q 46.484375 44.53125 46.484375 51.125 
Q 46.484375 57.671875 42.71875 61.234375 
Q 38.96875 64.796875 32.078125 64.796875 
z
M 9.8125 72.90625 
L 32.078125 72.90625 
Q 44.34375 72.90625 50.609375 67.359375 
Q 56.890625 61.8125 56.890625 51.125 
Q 56.890625 40.328125 50.609375 34.8125 
Q 44.34375 29.296875 32.078125 29.296875 
L 19.671875 29.296875 
L 19.671875 0 
L 9.8125 0 
z
" id="DejaVuSans-50"/>
     <path d="M 9.421875 75.984375 
L 18.40625 75.984375 
L 18.40625 0 
L 9.421875 0 
z
" id="DejaVuSans-6c"/>
     <path d="M 30.609375 48.390625 
Q 23.390625 48.390625 19.1875 42.75 
Q 14.984375 37.109375 14.984375 27.296875 
Q 14.984375 17.484375 19.15625 11.84375 
Q 23.34375 6.203125 30.609375 6.203125 
Q 37.796875 6.203125 41.984375 11.859375 
Q 46.1875 17.53125 46.1875 27.296875 
Q 46.1875 37.015625 41.984375 42.703125 
Q 37.796875 48.390625 30.609375 48.390625 
M 30.609375 56 
Q 42.328125 56 49.015625 48.375 
Q 55.71875 40.765625 55.71875 27.296875 
Q 55.71875 13.875 49.015625 6.21875 
Q 42.328125 -1.421875 30.609375 -1.421875 
Q 18.84375 -1.421875 12.171875 6.21875 
Q 5.515625 13.875 5.515625 27.296875 
Q 5.515625 40.765625 12.171875 48.375 
Q 18.84375 56 30.609375 56 
" id="DejaVuSans-6f"/>
     <path d="M 18.3125 70.21875 
L 18.3125 54.6875 
L 36.8125 54.6875 
L 36.8125 47.703125 
L 18.3125 47.703125 
L 18.3125 18.015625 
Q 18.3125 11.328125 20.140625 9.421875 
Q 21.96875 7.515625 27.59375 7.515625 
L 36.8125 7.515625 
L 36.8125 0 
L 27.59375 0 
Q 17.1875 0 13.234375 3.875 
Q 9.28125 7.765625 9.28125 18.015625 
L 9.28125 47.703125 
L 2.6875 47.703125 
L 2.6875 54.6875 
L 9.28125 54.6875 
L 9.28125 70.21875 
z
" id="DejaVuSans-74"/>
     <path id="DejaVuSans-20"/>
     <path d="M 37.109375 75.984375 
L 37.109375 68.5 
L 28.515625 68.5 
Q 23.6875 68.5 21.796875 66.546875 
Q 19.921875 64.59375 19.921875 59.515625 
L 19.921875 54.6875 
L 34.71875 54.6875 
L 34.71875 47.703125 
L 19.921875 47.703125 
L 19.921875 0 
L 10.890625 0 
L 10.890625 47.703125 
L 2.296875 47.703125 
L 2.296875 54.6875 
L 10.890625 54.6875 
L 10.890625 58.5 
Q 10.890625 67.625 15.140625 71.796875 
Q 19.390625 75.984375 28.609375 75.984375 
z
" id="DejaVuSans-66"/>
     <path d="M -0.296875 72.90625 
L 61.375 72.90625 
L 61.375 64.59375 
L 35.5 64.59375 
L 35.5 0 
L 25.59375 0 
L 25.59375 64.59375 
L -0.296875 64.59375 
z
" id="DejaVuSans-54"/>
     <path d="M 56.203125 29.59375 
L 56.203125 25.203125 
L 14.890625 25.203125 
Q 15.484375 15.921875 20.484375 11.0625 
Q 25.484375 6.203125 34.421875 6.203125 
Q 39.59375 6.203125 44.453125 7.46875 
Q 49.3125 8.734375 54.109375 11.28125 
L 54.109375 2.78125 
Q 49.265625 0.734375 44.1875 -0.34375 
Q 39.109375 -1.421875 33.890625 -1.421875 
Q 20.796875 -1.421875 13.15625 6.1875 
Q 5.515625 13.8125 5.515625 26.8125 
Q 5.515625 40.234375 12.765625 48.109375 
Q 20.015625 56 32.328125 56 
Q 43.359375 56 49.78125 48.890625 
Q 56.203125 41.796875 56.203125 29.59375 
M 47.21875 32.234375 
Q 47.125 39.59375 43.09375 43.984375 
Q 39.0625 48.390625 32.421875 48.390625 
Q 24.90625 48.390625 20.390625 44.140625 
Q 15.875 39.890625 15.1875 32.171875 
z
" id="DejaVuSans-65"/>
     <path d="M 44.28125 53.078125 
L 44.28125 44.578125 
Q 40.484375 46.53125 36.375 47.5 
Q 32.28125 48.484375 27.875 48.484375 
Q 21.1875 48.484375 17.84375 46.4375 
Q 14.5 44.390625 14.5 40.28125 
Q 14.5 37.15625 16.890625 35.375 
Q 19.28125 33.59375 26.515625 31.984375 
L 29.59375 31.296875 
Q 39.15625 29.25 43.1875 25.515625 
Q 47.21875 21.78125 47.21875 15.09375 
Q 47.21875 7.46875 41.1875 3.015625 
Q 35.15625 -1.421875 24.609375 -1.421875 
Q 20.21875 -1.421875 15.453125 -0.5625 
Q 10.6875 0.296875 5.421875 2 
L 5.421875 11.28125 
Q 10.40625 8.6875 15.234375 7.390625 
Q 20.0625 6.109375 24.8125 6.109375 
Q 31.15625 6.109375 34.5625 8.28125 
Q 37.984375 10.453125 37.984375 14.40625 
Q 37.984375 18.0625 35.515625 20.015625 
Q 33.0625 21.96875 24.703125 23.78125 
L 21.578125 24.515625 
Q 13.234375 26.265625 9.515625 29.90625 
Q 5.8125 33.546875 5.8125 39.890625 
Q 5.8125 47.609375 11.28125 51.796875 
Q 16.75 56 26.8125 56 
Q 31.78125 56 36.171875 55.265625 
Q 40.578125 54.546875 44.28125 53.078125 
" id="DejaVuSans-73"/>
     <path d="M 19.671875 64.796875 
L 19.671875 8.109375 
L 31.59375 8.109375 
Q 46.6875 8.109375 53.6875 14.9375 
Q 60.6875 21.78125 60.6875 36.53125 
Q 60.6875 51.171875 53.6875 57.984375 
Q 46.6875 64.796875 31.59375 64.796875 
z
M 9.8125 72.90625 
L 30.078125 72.90625 
Q 51.265625 72.90625 61.171875 64.09375 
Q 71.09375 55.28125 71.09375 36.53125 
Q 71.09375 17.671875 61.125 8.828125 
Q 51.171875 0 30.078125 0 
L 9.8125 0 
z
" id="DejaVuSans-44"/>
     <path d="M 34.28125 27.484375 
Q 23.390625 27.484375 19.1875 25 
Q 14.984375 22.515625 14.984375 16.5 
Q 14.984375 11.71875 18.140625 8.90625 
Q 21.296875 6.109375 26.703125 6.109375 
Q 34.1875 6.109375 38.703125 11.40625 
Q 43.21875 16.703125 43.21875 25.484375 
L 43.21875 27.484375 
z
M 52.203125 31.203125 
L 52.203125 0 
L 43.21875 0 
L 43.21875 8.296875 
Q 40.140625 3.328125 35.546875 0.953125 
Q 30.953125 -1.421875 24.3125 -1.421875 
Q 15.921875 -1.421875 10.953125 3.296875 
Q 6 8.015625 6 15.921875 
Q 6 25.140625 12.171875 29.828125 
Q 18.359375 34.515625 30.609375 34.515625 
L 43.21875 34.515625 
L 43.21875 35.40625 
Q 43.21875 41.609375 39.140625 45 
Q 35.0625 48.390625 27.6875 48.390625 
Q 23 48.390625 18.546875 47.265625 
Q 14.109375 46.140625 10.015625 43.890625 
L 10.015625 52.203125 
Q 14.9375 54.109375 19.578125 55.046875 
Q 24.21875 56 28.609375 56 
Q 40.484375 56 46.34375 49.84375 
Q 52.203125 43.703125 52.203125 31.203125 
" id="DejaVuSans-61"/>
     <path d="M 2.984375 54.6875 
L 12.5 54.6875 
L 29.59375 8.796875 
L 46.6875 54.6875 
L 56.203125 54.6875 
L 35.6875 0 
L 23.484375 0 
z
" id="DejaVuSans-76"/>
     <path d="M 9.8125 72.90625 
L 24.515625 72.90625 
L 43.109375 23.296875 
L 61.8125 72.90625 
L 76.515625 72.90625 
L 76.515625 0 
L 66.890625 0 
L 66.890625 64.015625 
L 48.09375 14.015625 
L 38.1875 14.015625 
L 19.390625 64.015625 
L 19.390625 0 
L 9.8125 0 
z
" id="DejaVuSans-4d"/>
     <path d="M 64.40625 67.28125 
L 64.40625 56.890625 
Q 59.421875 61.53125 53.78125 63.8125 
Q 48.140625 66.109375 41.796875 66.109375 
Q 29.296875 66.109375 22.65625 58.46875 
Q 16.015625 50.828125 16.015625 36.375 
Q 16.015625 21.96875 22.65625 14.328125 
Q 29.296875 6.6875 41.796875 6.6875 
Q 48.140625 6.6875 53.78125 8.984375 
Q 59.421875 11.28125 64.40625 15.921875 
L 64.40625 5.609375 
Q 59.234375 2.09375 53.4375 0.328125 
Q 47.65625 -1.421875 41.21875 -1.421875 
Q 24.65625 -1.421875 15.125 8.703125 
Q 5.609375 18.84375 5.609375 36.375 
Q 5.609375 53.953125 15.125 64.078125 
Q 24.65625 74.21875 41.21875 74.21875 
Q 47.75 74.21875 53.53125 72.484375 
Q 59.328125 70.75 64.40625 67.28125 
" id="DejaVuSans-43"/>
     <path d="M 8.6875 72.90625 
L 18.609375 72.90625 
L 18.609375 28.609375 
Q 18.609375 16.890625 22.84375 11.734375 
Q 27.09375 6.59375 36.625 6.59375 
Q 46.09375 6.59375 50.34375 11.734375 
Q 54.59375 16.890625 54.59375 28.609375 
L 54.59375 72.90625 
L 64.5 72.90625 
L 64.5 27.390625 
Q 64.5 13.140625 57.4375 5.859375 
Q 50.390625 -1.421875 36.625 -1.421875 
Q 22.796875 -1.421875 15.734375 5.859375 
Q 8.6875 13.140625 8.6875 27.390625 
z
" id="DejaVuSans-55"/>
     <path d="M 54.890625 33.015625 
L 54.890625 0 
L 45.90625 0 
L 45.90625 32.71875 
Q 45.90625 40.484375 42.875 44.328125 
Q 39.84375 48.1875 33.796875 48.1875 
Q 26.515625 48.1875 22.3125 43.546875 
Q 18.109375 38.921875 18.109375 30.90625 
L 18.109375 0 
L 9.078125 0 
L 9.078125 54.6875 
L 18.109375 54.6875 
L 18.109375 46.1875 
Q 21.34375 51.125 25.703125 53.5625 
Q 30.078125 56 35.796875 56 
Q 45.21875 56 50.046875 50.171875 
Q 54.890625 44.34375 54.890625 33.015625 
" id="DejaVuSans-6e"/>
     <path d="M 48.78125 52.59375 
L 48.78125 44.1875 
Q 44.96875 46.296875 41.140625 47.34375 
Q 37.3125 48.390625 33.40625 48.390625 
Q 24.65625 48.390625 19.8125 42.84375 
Q 14.984375 37.3125 14.984375 27.296875 
Q 14.984375 17.28125 19.8125 11.734375 
Q 24.65625 6.203125 33.40625 6.203125 
Q 37.3125 6.203125 41.140625 7.25 
Q 44.96875 8.296875 48.78125 10.40625 
L 48.78125 2.09375 
Q 45.015625 0.34375 40.984375 -0.53125 
Q 36.96875 -1.421875 32.421875 -1.421875 
Q 20.0625 -1.421875 12.78125 6.34375 
Q 5.515625 14.109375 5.515625 27.296875 
Q 5.515625 40.671875 12.859375 48.328125 
Q 20.21875 56 33.015625 56 
Q 37.15625 56 41.109375 55.140625 
Q 45.0625 54.296875 48.78125 52.59375 
" id="DejaVuSans-63"/>
     <path d="M 41.109375 46.296875 
Q 39.59375 47.171875 37.8125 47.578125 
Q 36.03125 48 33.890625 48 
Q 26.265625 48 22.1875 43.046875 
Q 18.109375 38.09375 18.109375 28.8125 
L 18.109375 0 
L 9.078125 0 
L 9.078125 54.6875 
L 18.109375 54.6875 
L 18.109375 46.1875 
Q 20.953125 51.171875 25.484375 53.578125 
Q 30.03125 56 36.53125 56 
Q 37.453125 56 38.578125 55.875 
Q 39.703125 55.765625 41.0625 55.515625 
z
" id="DejaVuSans-72"/>
     <path d="M 9.421875 54.6875 
L 18.40625 54.6875 
L 18.40625 0 
L 9.421875 0 
z
M 9.421875 75.984375 
L 18.40625 75.984375 
L 18.40625 64.59375 
L 9.421875 64.59375 
z
" id="DejaVuSans-69"/>
     <path d="M 32.171875 -5.078125 
Q 28.375 -14.84375 24.75 -17.8125 
Q 21.140625 -20.796875 15.09375 -20.796875 
L 7.90625 -20.796875 
L 7.90625 -13.28125 
L 13.1875 -13.28125 
Q 16.890625 -13.28125 18.9375 -11.515625 
Q 21 -9.765625 23.484375 -3.21875 
L 25.09375 0.875 
L 2.984375 54.6875 
L 12.5 54.6875 
L 29.59375 11.921875 
L 46.6875 54.6875 
L 56.203125 54.6875 
z
" id="DejaVuSans-79"/>
    </defs>
    <g transform="translate(118.112813 35.472)scale(0.12 -0.12)">
     <use xlink:href="#DejaVuSans-50"/>
     <use x="60.302734" xlink:href="#DejaVuSans-6c"/>
     <use x="88.085938" xlink:href="#DejaVuSans-6f"/>
     <use x="149.267578" xlink:href="#DejaVuSans-74"/>
     <use x="188.476562" xlink:href="#DejaVuSans-20"/>
     <use x="220.263672" xlink:href="#DejaVuSans-6f"/>
     <use x="281.445312" xlink:href="#DejaVuSans-66"/>
     <use x="316.650391" xlink:href="#DejaVuSans-20"/>
     <use x="348.4375" xlink:href="#DejaVuSans-54"/>
     <use x="409.255859" xlink:href="#DejaVuSans-65"/>
     <use x="470.779297" xlink:href="#DejaVuSans-73"/>
     <use x="522.878906" xlink:href="#DejaVuSans-74"/>
     <use x="562.087891" xlink:href="#DejaVuSans-20"/>
     <use x="593.875" xlink:href="#DejaVuSans-44"/>
     <use x="670.876953" xlink:href="#DejaVuSans-61"/>
     <use x="732.15625" xlink:href="#DejaVuSans-74"/>
     <use x="771.365234" xlink:href="#DejaVuSans-61"/>
     <use x="832.644531" xlink:href="#DejaVuSans-20"/>
     <use x="864.431641" xlink:href="#DejaVuSans-76"/>
     <use x="923.611328" xlink:href="#DejaVuSans-73"/>
     <use x="975.710938" xlink:href="#DejaVuSans-20"/>
     <use x="1007.498047" xlink:href="#DejaVuSans-4d"/>
     <use x="1093.777344" xlink:href="#DejaVuSans-43"/>
     <use x="1163.601562" xlink:href="#DejaVuSans-4d"/>
     <use x="1249.880859" xlink:href="#DejaVuSans-43"/>
     <use x="1319.705078" xlink:href="#DejaVuSans-20"/>
     <use x="1351.492188" xlink:href="#DejaVuSans-55"/>
     <use x="1424.685547" xlink:href="#DejaVuSans-6e"/>
     <use x="1488.064453" xlink:href="#DejaVuSans-63"/>
     <use x="1543.044922" xlink:href="#DejaVuSans-65"/>
     <use x="1604.568359" xlink:href="#DejaVuSans-72"/>
     <use x="1645.681641" xlink:href="#DejaVuSans-74"/>
     <use x="1684.890625" xlink:href="#DejaVuSans-61"/>
     <use x="1746.169922" xlink:href="#DejaVuSans-69"/>
     <use x="1773.953125" xlink:href="#DejaVuSans-6e"/>
     <use x="1837.332031" xlink:href="#DejaVuSans-74"/>
     <use x="1876.541016" xlink:href="#DejaVuSans-79"/>
     <use x="1935.720703" xlink:href="#DejaVuSans-20"/>
    </g>
   </g>
   <g id="legend_1">
    <g id="patch_7">
     <path d="M 277.843437 108.1845 
L 407.72 108.1845 
Q 409.72 108.1845 409.72 106.1845 
L 409.72 48.472 
Q 409.72 46.472 407.72 46.472 
L 277.843437 46.472 
Q 275.843437 46.472 275.843437 48.472 
L 275.843437 106.1845 
Q 275.843437 108.1845 277.843437 108.1845 
z
" style="fill:#ffffff;opacity:0.8;stroke:#cccccc;stroke-linejoin:miter;"/>
    </g>
    <g id="line2d_19">
     <path d="M 279.843437 54.570438 
L 299.843437 54.570438 
" style="fill:none;stroke:#1f77b4;stroke-linecap:square;stroke-width:1.5;"/>
    </g>
    <g id="line2d_20"/>
    <g id="text_16">
     <!-- actual -->
     <defs>
      <path d="M 8.5 21.578125 
L 8.5 54.6875 
L 17.484375 54.6875 
L 17.484375 21.921875 
Q 17.484375 14.15625 20.5 10.265625 
Q 23.53125 6.390625 29.59375 6.390625 
Q 36.859375 6.390625 41.078125 11.03125 
Q 45.3125 15.671875 45.3125 23.6875 
L 45.3125 54.6875 
L 54.296875 54.6875 
L 54.296875 0 
L 45.3125 0 
L 45.3125 8.40625 
Q 42.046875 3.421875 37.71875 1 
Q 33.40625 -1.421875 27.6875 -1.421875 
Q 18.265625 -1.421875 13.375 4.4375 
Q 8.5 10.296875 8.5 21.578125 
M 31.109375 56 
z
" id="DejaVuSans-75"/>
     </defs>
     <g transform="translate(307.843437 58.070438)scale(0.1 -0.1)">
      <use xlink:href="#DejaVuSans-61"/>
      <use x="61.279297" xlink:href="#DejaVuSans-63"/>
      <use x="116.259766" xlink:href="#DejaVuSans-74"/>
      <use x="155.46875" xlink:href="#DejaVuSans-75"/>
      <use x="218.847656" xlink:href="#DejaVuSans-61"/>
      <use x="280.126953" xlink:href="#DejaVuSans-6c"/>
     </g>
    </g>
    <g id="line2d_21">
     <path d="M 279.843437 69.248563 
L 299.843437 69.248563 
" style="fill:none;stroke:#ff7f0e;stroke-linecap:square;stroke-width:1.5;"/>
    </g>
    <g id="line2d_22"/>
    <g id="text_17">
     <!-- pred. (mean) -->
     <defs>
      <path d="M 18.109375 8.203125 
L 18.109375 -20.796875 
L 9.078125 -20.796875 
L 9.078125 54.6875 
L 18.109375 54.6875 
L 18.109375 46.390625 
Q 20.953125 51.265625 25.265625 53.625 
Q 29.59375 56 35.59375 56 
Q 45.5625 56 51.78125 48.09375 
Q 58.015625 40.1875 58.015625 27.296875 
Q 58.015625 14.40625 51.78125 6.484375 
Q 45.5625 -1.421875 35.59375 -1.421875 
Q 29.59375 -1.421875 25.265625 0.953125 
Q 20.953125 3.328125 18.109375 8.203125 
M 48.6875 27.296875 
Q 48.6875 37.203125 44.609375 42.84375 
Q 40.53125 48.484375 33.40625 48.484375 
Q 26.265625 48.484375 22.1875 42.84375 
Q 18.109375 37.203125 18.109375 27.296875 
Q 18.109375 17.390625 22.1875 11.75 
Q 26.265625 6.109375 33.40625 6.109375 
Q 40.53125 6.109375 44.609375 11.75 
Q 48.6875 17.390625 48.6875 27.296875 
" id="DejaVuSans-70"/>
      <path d="M 45.40625 46.390625 
L 45.40625 75.984375 
L 54.390625 75.984375 
L 54.390625 0 
L 45.40625 0 
L 45.40625 8.203125 
Q 42.578125 3.328125 38.25 0.953125 
Q 33.9375 -1.421875 27.875 -1.421875 
Q 17.96875 -1.421875 11.734375 6.484375 
Q 5.515625 14.40625 5.515625 27.296875 
Q 5.515625 40.1875 11.734375 48.09375 
Q 17.96875 56 27.875 56 
Q 33.9375 56 38.25 53.625 
Q 42.578125 51.265625 45.40625 46.390625 
M 14.796875 27.296875 
Q 14.796875 17.390625 18.875 11.75 
Q 22.953125 6.109375 30.078125 6.109375 
Q 37.203125 6.109375 41.296875 11.75 
Q 45.40625 17.390625 45.40625 27.296875 
Q 45.40625 37.203125 41.296875 42.84375 
Q 37.203125 48.484375 30.078125 48.484375 
Q 22.953125 48.484375 18.875 42.84375 
Q 14.796875 37.203125 14.796875 27.296875 
" id="DejaVuSans-64"/>
      <path d="M 31 75.875 
Q 24.46875 64.65625 21.28125 53.65625 
Q 18.109375 42.671875 18.109375 31.390625 
Q 18.109375 20.125 21.3125 9.0625 
Q 24.515625 -2 31 -13.1875 
L 23.1875 -13.1875 
Q 15.875 -1.703125 12.234375 9.375 
Q 8.59375 20.453125 8.59375 31.390625 
Q 8.59375 42.28125 12.203125 53.3125 
Q 15.828125 64.359375 23.1875 75.875 
z
" id="DejaVuSans-28"/>
      <path d="M 52 44.1875 
Q 55.375 50.25 60.0625 53.125 
Q 64.75 56 71.09375 56 
Q 79.640625 56 84.28125 50.015625 
Q 88.921875 44.046875 88.921875 33.015625 
L 88.921875 0 
L 79.890625 0 
L 79.890625 32.71875 
Q 79.890625 40.578125 77.09375 44.375 
Q 74.3125 48.1875 68.609375 48.1875 
Q 61.625 48.1875 57.5625 43.546875 
Q 53.515625 38.921875 53.515625 30.90625 
L 53.515625 0 
L 44.484375 0 
L 44.484375 32.71875 
Q 44.484375 40.625 41.703125 44.40625 
Q 38.921875 48.1875 33.109375 48.1875 
Q 26.21875 48.1875 22.15625 43.53125 
Q 18.109375 38.875 18.109375 30.90625 
L 18.109375 0 
L 9.078125 0 
L 9.078125 54.6875 
L 18.109375 54.6875 
L 18.109375 46.1875 
Q 21.1875 51.21875 25.484375 53.609375 
Q 29.78125 56 35.6875 56 
Q 41.65625 56 45.828125 52.96875 
Q 50 49.953125 52 44.1875 
" id="DejaVuSans-6d"/>
      <path d="M 8.015625 75.875 
L 15.828125 75.875 
Q 23.140625 64.359375 26.78125 53.3125 
Q 30.421875 42.28125 30.421875 31.390625 
Q 30.421875 20.453125 26.78125 9.375 
Q 23.140625 -1.703125 15.828125 -13.1875 
L 8.015625 -13.1875 
Q 14.5 -2 17.703125 9.0625 
Q 20.90625 20.125 20.90625 31.390625 
Q 20.90625 42.671875 17.703125 53.65625 
Q 14.5 64.65625 8.015625 75.875 
" id="DejaVuSans-29"/>
     </defs>
     <g transform="translate(307.843437 72.748563)scale(0.1 -0.1)">
      <use xlink:href="#DejaVuSans-70"/>
      <use x="63.476562" xlink:href="#DejaVuSans-72"/>
      <use x="104.558594" xlink:href="#DejaVuSans-65"/>
      <use x="166.082031" xlink:href="#DejaVuSans-64"/>
      <use x="229.558594" xlink:href="#DejaVuSans-2e"/>
      <use x="261.345703" xlink:href="#DejaVuSans-20"/>
      <use x="293.132812" xlink:href="#DejaVuSans-28"/>
      <use x="332.146484" xlink:href="#DejaVuSans-6d"/>
      <use x="429.558594" xlink:href="#DejaVuSans-65"/>
      <use x="491.082031" xlink:href="#DejaVuSans-61"/>
      <use x="552.361328" xlink:href="#DejaVuSans-6e"/>
      <use x="615.740234" xlink:href="#DejaVuSans-29"/>
     </g>
    </g>
    <g id="line2d_23">
     <path d="M 279.843437 83.926688 
L 299.843437 83.926688 
" style="fill:none;stroke:#2ca02c;stroke-linecap:square;stroke-width:1.5;"/>
    </g>
    <g id="line2d_24"/>
    <g id="text_18">
     <!-- pred.(5th percen.) -->
     <defs>
      <path d="M 54.890625 33.015625 
L 54.890625 0 
L 45.90625 0 
L 45.90625 32.71875 
Q 45.90625 40.484375 42.875 44.328125 
Q 39.84375 48.1875 33.796875 48.1875 
Q 26.515625 48.1875 22.3125 43.546875 
Q 18.109375 38.921875 18.109375 30.90625 
L 18.109375 0 
L 9.078125 0 
L 9.078125 75.984375 
L 18.109375 75.984375 
L 18.109375 46.1875 
Q 21.34375 51.125 25.703125 53.5625 
Q 30.078125 56 35.796875 56 
Q 45.21875 56 50.046875 50.171875 
Q 54.890625 44.34375 54.890625 33.015625 
" id="DejaVuSans-68"/>
     </defs>
     <g transform="translate(307.843437 87.426688)scale(0.1 -0.1)">
      <use xlink:href="#DejaVuSans-70"/>
      <use x="63.476562" xlink:href="#DejaVuSans-72"/>
      <use x="104.558594" xlink:href="#DejaVuSans-65"/>
      <use x="166.082031" xlink:href="#DejaVuSans-64"/>
      <use x="229.558594" xlink:href="#DejaVuSans-2e"/>
      <use x="261.345703" xlink:href="#DejaVuSans-28"/>
      <use x="300.359375" xlink:href="#DejaVuSans-35"/>
      <use x="363.982422" xlink:href="#DejaVuSans-74"/>
      <use x="403.191406" xlink:href="#DejaVuSans-68"/>
      <use x="466.570312" xlink:href="#DejaVuSans-20"/>
      <use x="498.357422" xlink:href="#DejaVuSans-70"/>
      <use x="561.833984" xlink:href="#DejaVuSans-65"/>
      <use x="623.357422" xlink:href="#DejaVuSans-72"/>
      <use x="664.439453" xlink:href="#DejaVuSans-63"/>
      <use x="719.419922" xlink:href="#DejaVuSans-65"/>
      <use x="780.943359" xlink:href="#DejaVuSans-6e"/>
      <use x="844.322266" xlink:href="#DejaVuSans-2e"/>
      <use x="876.109375" xlink:href="#DejaVuSans-29"/>
     </g>
    </g>
    <g id="line2d_25">
     <path d="M 279.843437 98.604813 
L 299.843437 98.604813 
" style="fill:none;stroke:#d62728;stroke-linecap:square;stroke-width:1.5;"/>
    </g>
    <g id="line2d_26"/>
    <g id="text_19">
     <!-- pred.(95th percen.) -->
     <defs>
      <path d="M 10.984375 1.515625 
L 10.984375 10.5 
Q 14.703125 8.734375 18.5 7.8125 
Q 22.3125 6.890625 25.984375 6.890625 
Q 35.75 6.890625 40.890625 13.453125 
Q 46.046875 20.015625 46.78125 33.40625 
Q 43.953125 29.203125 39.59375 26.953125 
Q 35.25 24.703125 29.984375 24.703125 
Q 19.046875 24.703125 12.671875 31.3125 
Q 6.296875 37.9375 6.296875 49.421875 
Q 6.296875 60.640625 12.9375 67.421875 
Q 19.578125 74.21875 30.609375 74.21875 
Q 43.265625 74.21875 49.921875 64.515625 
Q 56.59375 54.828125 56.59375 36.375 
Q 56.59375 19.140625 48.40625 8.859375 
Q 40.234375 -1.421875 26.421875 -1.421875 
Q 22.703125 -1.421875 18.890625 -0.6875 
Q 15.09375 0.046875 10.984375 1.515625 
M 30.609375 32.421875 
Q 37.25 32.421875 41.125 36.953125 
Q 45.015625 41.5 45.015625 49.421875 
Q 45.015625 57.28125 41.125 61.84375 
Q 37.25 66.40625 30.609375 66.40625 
Q 23.96875 66.40625 20.09375 61.84375 
Q 16.21875 57.28125 16.21875 49.421875 
Q 16.21875 41.5 20.09375 36.953125 
Q 23.96875 32.421875 30.609375 32.421875 
" id="DejaVuSans-39"/>
     </defs>
     <g transform="translate(307.843437 102.104813)scale(0.1 -0.1)">
      <use xlink:href="#DejaVuSans-70"/>
      <use x="63.476562" xlink:href="#DejaVuSans-72"/>
      <use x="104.558594" xlink:href="#DejaVuSans-65"/>
      <use x="166.082031" xlink:href="#DejaVuSans-64"/>
      <use x="229.558594" xlink:href="#DejaVuSans-2e"/>
      <use x="261.345703" xlink:href="#DejaVuSans-28"/>
      <use x="300.359375" xlink:href="#DejaVuSans-39"/>
      <use x="363.982422" xlink:href="#DejaVuSans-35"/>
      <use x="427.605469" xlink:href="#DejaVuSans-74"/>
      <use x="466.814453" xlink:href="#DejaVuSans-68"/>
      <use x="530.193359" xlink:href="#DejaVuSans-20"/>
      <use x="561.980469" xlink:href="#DejaVuSans-70"/>
      <use x="625.457031" xlink:href="#DejaVuSans-65"/>
      <use x="686.980469" xlink:href="#DejaVuSans-72"/>
      <use x="728.0625" xlink:href="#DejaVuSans-63"/>
      <use x="783.042969" xlink:href="#DejaVuSans-65"/>
      <use x="844.566406" xlink:href="#DejaVuSans-6e"/>
      <use x="907.945312" xlink:href="#DejaVuSans-2e"/>
      <use x="939.732422" xlink:href="#DejaVuSans-29"/>
     </g>
    </g>
   </g>
  </g>
 </g>
 <defs>
  <clipPath id="pab646704be">
   <rect height="266.112" width="357.12" x="57.6" y="41.472"/>
  </clipPath>
 </defs>
</svg>
